<svg id="Layer_1" data-name="Layer 1" xmlns="http://www.w3.org/2000/svg" viewBox="0 0 961.28 194.55"><defs><style>.cls-1{fill:#178140;}.cls-2{fill:#f9f9fa;}</style></defs><rect class="cls-1" width="961.28" height="194.55" rx="27.13"/><path class="cls-2" d="M233.25,579.84c0,29.4-22.32,48.49-60.73,48.49-39.91,0-70-19.74-70-53.86h38.63c0,16.31,14.16,22.32,31.33,22.32,14.38,0,22.1-5.58,22.1-13.31,0-12.23-16.52-15-38.19-21.45-26.4-7.73-49.58-19.1-49.58-47.43,0-33.48,26.19-46.57,59.23-46.57,35.84,0,63.95,18.89,65,50H192.48c-1.72-11.58-11.59-18.45-26.4-18.45-11.59,0-20.6,3.65-20.6,12.23,0,9.44,9.66,12.45,29,17.81C203.42,537.56,233.25,547,233.25,579.84Z" transform="translate(-59.36 -450.91)"/><path class="cls-2" d="M287.32,471.47v60.08H339.9V471.47h38.62V624.9H339.9V563.1H287.32v61.8H248.7V471.47Z" transform="translate(-59.36 -450.91)"/><path class="cls-2" d="M435.17,592.93l-9.87,32H386.68l55.58-153.43h38.62L536.25,624.9H497.62l-9.87-32Zm44-29.4-17.39-56.66h-.43L444,563.53Z" transform="translate(-59.36 -450.91)"/><path class="cls-2" d="M585.6,471.47V533.7L639,471.47H684.1l-58.37,67.59,60.51,85.84H641.18l-40.13-58.15L585.6,584.34V624.9H547V471.47Z" transform="translate(-59.36 -450.91)"/><path class="cls-2" d="M736.45,592.93l-9.87,32H688l55.58-153.43h38.62L837.53,624.9H798.9l-9.87-32Zm44-29.4-17.38-56.66h-.43l-17.38,56.66Z" transform="translate(-59.36 -450.91)"/><path class="cls-2" d="M848.25,471.47h72.32c34.12,0,54.72,15.66,54.72,44.63,0,20.39-12,33.26-31.11,37.56v.42c38.41,6.66,24.46,66.1,33.26,68.67v2.15H937.31c-7.51-6.44,6.44-53.43-26.4-53.43h-24V624.9H848.25Zm38.63,68.45h26.18c15.45,0,23.6-5.58,23.6-18.45S928.51,503,913.06,503H886.88Z" transform="translate(-59.36 -450.91)"/></svg>