<?xml version="1.0" encoding="utf-8"?>
<!-- Generator: Adobe Illustrator 26.0.1, SVG Export Plug-In . SVG Version: 6.00 Build 0)  -->
<svg version="1.1" id="Layer_1" xmlns="http://www.w3.org/2000/svg" xmlns:xlink="http://www.w3.org/1999/xlink" x="0px" y="0px"
	 viewBox="0 0 595.28 841.89" style="enable-background:new 0 0 595.28 841.89;" xml:space="preserve">
<style type="text/css">
	.st0{fill:#F05555;}
	.st1{fill:#F1F5F9;}
</style>
<g>
	<g>
		<path class="st0" d="M351.65,460.73c-0.01,0-0.01,0-0.02,0c-0.04,0.05-0.06,0.08-0.1,0.13L351.65,460.73z"/>
		<path class="st0" d="M538.5,420.43c-0.04,0.02-0.09,0.04-0.13,0.06c0,0.03,0.01,0.05,0.01,0.08L538.5,420.43z"/>
		<path class="st0" d="M257.54,466.84c0.02-0.05,0.04-0.1,0.06-0.15c-0.07,0-0.14,0.01-0.21,0.01L257.54,466.84z"/>
		<path class="st0" d="M514.51,365.19c-1.62-0.16-1.28-1.56-1.35-2.65c-0.09-1.29-1.24-1.99-1.79-1.47
			c-1.87,1.75-3.31-0.52-4.98-0.25c-3.48,0.57-6.63-1-9.8-2.11c-1.13-0.39-1.41-0.54-1.71,0.83c-0.32,1.43-1.37,2.35-2.73,2.77
			c-0.04,0.66-0.04,1.33-0.19,1.96c-0.06,0.24-0.5,0.4-0.8,0.52c-0.06,0.02-0.33-0.31-0.36-0.51c-0.09-0.64-0.13-1.28-0.18-1.93
			c-0.66-0.07-1.39,0-1.95-0.29c-1.4-0.75-2.16-2.87-4-2.6c-1.85,0.27-2.73-1.86-4.46-1.65c-0.99,0.13-1.71-0.82-2.51-0.96
			c-2.24-0.4-2.42-2.53-3.41-3.97c-0.09-0.13-0.1-0.51-0.06-0.53c0.41-0.17,1.05-0.55,1.23-0.38c2.01,1.86,3.45,1.25,5.28-0.59
			c1.42-1.43,3.61-1.95,5.34-3.08c1.51-0.99,2.94-1.48,4.46-0.28c0.66,0.52,1.11,0.35,1.76,0.01c2.06-1.05,4.62-0.21,6.56-1.97
			c0.41-0.37,1.56-0.38,2.02-0.04c2.97,2.21,6.29,1.44,9.45,1.21c2.2-0.16,4.34-1.2,6.51-1.87c0.06-0.02,0.12-0.35,0.05-0.46
			c-0.12-0.2-0.33-0.48-0.51-0.48c-2.48-0.08-4.46-0.44-2.14-3.67c0.05-0.06-0.12-0.44-0.22-0.46c-2.72-0.48-5.47-0.89-8.06,0.45
			c-1.19,0.62-1.12-0.31-1.2-0.88c-0.12-0.89-0.62-1.38-1.32-1.39c-0.89-0.01-1.92,0.01-2.64,0.46c-1.83,1.16-2.86-0.58-4.11-1.2
			c-0.43-0.21-0.44-1.81-0.32-2.73c0.09-0.66,0.74-1.1,1.55-1.12c1.13-0.03,2.27-0.16,3.38-0.41c0.24-0.05,0.56-0.86,0.47-1.2
			c-0.51-1.83-1.91-2.99-3.53-2.78c-0.86,0.11-1.65,0.97-2.48,1c-0.8,0.03-1.61-0.72-2.45-0.84c-0.7-0.1-1.12,0.49-1.27,1.22
			c-0.44,0-0.88-0.01-1.33-0.01c-0.16-1.52-1.62-1.28-2.43-1.92c-2.06-1.63-3.84-1.31-5.47,0.7c-0.64,0.79-1.25,1.15-2.28,0.42
			c-0.7-0.49-1.94-0.17-2.56-0.71c-2.45-2.15-5.84-0.77-8.37-2.78c-1.06-0.84-2.54,0.29-3.73,0.95c-1.31-1.5-3.1-1.1-4.6-0.91
			c-1.74,0.22-3.24-2.23-4.99-0.35c-1.61-2.21-3.12-0.86-4.74,0.05c-0.68,0.38-1.34-0.34-1.46-1.09c-0.18-1.21-0.11-2.46-0.28-3.68
			c-0.09-0.66-0.55-0.84-0.93-0.47c-1.3,1.25-2.36,0.7-3.7-0.14c-1.93-1.21-3.97-2.42-6.43-1.93c-0.34,0.07-0.78-0.41-1.17-0.64
			c0.52-0.34,1.03-0.7,1.57-1c0.7-0.39,0.99-1.03,0.83-1.78c-0.23-1.09-1.79-2.48-2.31-2.06c-2.05,1.68-3.69,1.1-5.6-0.41
			c-0.77-0.6-2.27-0.07-3.41-0.24c-1.39-0.2-0.9-2.2-2.02-2.65c-0.6-0.24-1.31-0.19-1.98-0.25c-0.49-1.91-2.06-1.23-3.27-1.41
			c-1.7,2.16-3.09,0.04-4.6-0.38c-0.11-0.03-0.25-0.38-0.2-0.48c0.1-0.2,0.31-0.44,0.5-0.47c0.67-0.11,1.36-0.08,2.01-0.24
			c0.4-0.1,0.9-0.36,1.09-0.7c0.19-0.36,0.2-0.98,0.05-1.38c-0.41-1.12-1.55-1.95-2.45-1.65c-0.61,0.2-1.02,0.66-1.59-0.17
			c-1.55-2.27-1.86-2.49-3.18-0.69c-1.42,1.92-2.55,0.63-3.84,0.25c-0.14,0.36-0.24,0.86-0.46,0.93c-0.72,0.23-0.84-0.41-0.97-0.96
			c-1.37,0.02-2.62-0.17-3.54-1.49c-0.36-0.51-0.99-0.81-1.5-1.21c-1.52,2.4-4.41,0.14-6.07,2.03c-0.11,0.13-0.13,0.36-0.16,0.57
			c-1.12,0.07-2.24,0.09-3.35,0.25c-0.68,0.1-0.75,0.55-0.3,1.03c0.89,0.94,0.38,1.57-0.33,2.33c-0.98,1.04-1.55,0.34-2.16-0.38
			c-0.78-0.93-1.53-1.87-2.86-1.8c-1.98,0.11-3.87-1.01-4.73-2.36c-0.92-1.45-1.61-2.2-3.16-2.02c-1.57,0.19-2.33-0.37-3.03-2.1
			c-0.93-2.29-1.63-2.24-4.41-1.27c-2.46,0.85-3.06,0.52-3.8-2.17c-0.13-0.46-0.13-0.96-0.32-1.39c-0.87-2-3.18-1.83-4.49-3.23
			c-0.05-0.05-0.75,0.44-1.01,0.8c-0.41,0.56-0.84,1.17-1.03,1.84c-0.26,0.89,0.33,2.15-0.7,2.66c-0.78,0.38-1.77,0.3-2.66,0.43
			c-3.25,0.47-6.25-0.79-9.31-1.55c0.13-0.43,0.23-0.87,0.42-1.27c0.97-2.01,0.82-3.53-0.86-4.11c-0.98-0.34-2.16,0.8-3.42-0.38
			c-0.96-0.9-2.45-1.28-3.76-1.62c-0.87-0.23-1.85-0.02-2.77,0.05c-0.18,0.01-0.4,0.28-0.5,0.49c-0.05,0.09,0.1,0.43,0.22,0.47
			c1.39,0.45,2.5,1.3,3.25,2.6c0.21,0.37,0.29,1,0.15,1.4c-0.27,0.79-1.18,1.14-1.68,0.8c-2.36-1.59-4.59-2.1-7.09-0.25
			c-0.64,0.47-2.21,0.64-2.58,0.2c-2.14-2.49-5.68-0.1-7.78-2.72c-0.34-0.42-1.75,0.05-2.64,0.25c-0.43,0.09-0.77,0.71-1.18,0.76
			c-3.45,0.41-6.91,0.87-10.33-0.21c-0.87-0.27-1.73-0.65-2.62-0.77c-2.98-0.38-4.03,0.81-2.85,3.73c0.66,1.63,0.58,2.03-0.98,2.26
			c-0.67,0.1-0.67,0.5-0.32,1.04c0.3,0.45,1.19,1.23,0.01,1.58c-1.72,0.52-3.55-0.1-5.3,1.25c-2.03,1.56-4.47,2.49-7.18,2.04
			c-1.37-0.23-2.74-0.11-3.97,0.94c-0.4,0.34-1.46,0.37-1.87,0.05c-1.3-1.03-2.37-1.12-3.77-0.13c-1.24,0.88-2.64,0.65-3.89-0.32
			c-0.63-0.49-6.26-1.94-7.2-2.05c-2.89-0.33-5.33,1.26-7.92,2.12c-1.18,0.39-2.04,0.81-3.17-0.03c-0.49-0.36-1.59-0.63-1.87-0.34
			c-1.58,1.61-4.95,0.23-5.39,3.65c-0.01,0.04-0.43,0.12-0.5,0.03c-1.44-1.73-2.4,0.6-3.69,0.49c-1.61-0.13-3.24-0.11-4.59,1.26
			c-0.42,0.43-1.25,0.26-1.89-0.28c-1.86-1.59-3.76-1.13-5.82-0.24c-3.16,1.37-6.36,2.69-9.95,2.19c-1.59-0.22-3.29-0.2-4.58,1.22
			c-3.84,0.03-7.76,1.41-11.46-0.97c-1.13-0.72-2.61-0.29-3.94-1.07c-0.95-0.55-2.3,1.04-3.77,0.93c-0.77-0.06-1.58,0.85-2.41,1.21
			c-0.79,0.34-1.42-0.3-1.67-1.63c-0.09-0.48,0.01-1.03-0.16-1.47c-0.12-0.31-0.76-0.72-0.83-0.66c-1.63,1.45-4.08,0.64-5.66,2.57
			c-0.99,1.21-2.61,2.14-4.1,2.51c-1.89,0.47-3.5,1.02-4.8,2.65c-0.85,1.07-2.33,1.09-3.22,0.44c-1.69-1.23-3.47-1.27-5.33-1.26
			c-2.3,0-4.52,0.13-6.7-1.28c-1.03-0.67-2.69-0.33-3.2,1.74c-0.24,0.99-1.33,1.33-2.27,0.64c-2.49-1.84-4.71-0.93-7.13,0.35
			c-1.31,0.69-2.22,1.74-3.31,2.63c-1.41,1.16-1.38,2.42-0.25,3.77c0.11,0.14,0.16,0.55,0.13,0.56c-0.42,0.17-0.95,0.53-1.26,0.38
			c-1.45-0.69-2.72-1.64-4.51-1.35c-1.32,0.21-2.79,0.24-3.99-0.87c-1.79-1.66-2.74,1.24-4.38,0.97c-0.95-0.16-1.72-0.52-2.57-0.89
			c-2.2-0.96-4.45-1.38-6.21,1.07c-0.61,0.86-1.21,0.8-2.27,0.44c-2.16-0.72-4.33-2.51-6.84-0.78c-0.45,0.31-1.53,0.16-1.98-0.23
			c-1.11-0.95-1.82-0.33-2.93,0.04c-1.47,0.5-2.31,1.55-3.35,2.48c-0.93,0.83-1.22,0.6-1.46-1.05c-0.04-0.24,0.01-0.5-0.03-0.74
			c-0.25-1.67-0.52-1.88-1.46-1.03c-3.32,2.98-6.64,5.22-11.15,2.3c-1.07-0.69-2.66-0.31-3.01,1.86c-0.19,1.2-1.01,0.08-1.56-0.07
			c-0.96-0.26-1.93,1.48-2.93-0.01c-0.04-0.06-0.76,0.25-1.03,0.53c-1.2,1.3-2.56,2.27-4.32,1.93c-1.88-0.36-3.47,1.14-5.21,0.82
			c-0.84-0.15-1.58-0.98-2.53-0.35c-2.33,1.56-5.19,2.14-7.2,4.31c-0.68,0.73-1.46,1.13-2.46,1.16c-3.15,0.12-5.74,1.62-7.98,3.88
			c-0.6,0.61-1.31,0.63-1.91,0.26c-0.81-0.5-1.38-0.95-2.37-0.18c-2.1,1.63-4.5,2.42-7.16,2.14c-1.3-0.14-2.24,0.26-2.39,1.9
			c-0.06,0.62-0.65,0.82-0.99,0.41c-1.15-1.38-2.88,1.33-4.09-0.74c-0.27-0.46-1.62,0.07-1.75,1.31c1.27,0.15,2.18,1.18,2.27,2.17
			c0.12,1.3-1.29,0.75-2.07,0.8c-1.35,0.08-2.1,1.04-2.76,2.03c-0.66,0.98-0.94,2.3-1.72,3.1c-0.96,0.98-2.33,1.48-3.41,2.34
			c-1.28,1.01-0.36,2.92-1.27,4.11c-0.73,0.96-1.76,1.72-2.27,2.78c-0.49,1.02-0.09,2.3-0.63,3.51c-0.86,1.94-2.65,3.61-2.34,5.96
			c0.35,2.61-1.46,4.67-1.39,7.08c0.08,2.81-0.63,5.39-1.89,7.68c-1.17,2.12-0.23,4.58-1.17,6.41c-1,1.95-3.72,2.45-4.31,5.21
			c-0.39,1.84-0.75,1.75,0.92,2.17c2.99,0.75,3.65,1.54,3.57,4.29c-0.02,0.74,0.19,1.7-0.16,2.18c-1.19,1.59-0.11,3.47-0.93,5.25
			c-0.75,1.62-0.52,3.93-0.26,5.87c0.29,2.17-1.33,3.63-1.32,5.65c0.04,4.47-0.08,8.95-0.11,13.42c-0.01,1.49,0.29,2.8,1.16,4.13
			c0.81,1.24,0.56,2.84-0.49,4.06c-0.94,1.1-1.95,2.15-2.88,3.26c-0.52,0.62-0.52,1.4-0.07,2.02c1.28,1.76,2.99,2.81,5.07,2.73
			c0.73-0.03,1.3-0.24,1.44,0.58c0.17,0.97,0.15,1.98,0.12,2.97c-0.03,0.87,0.36,1.52,1.06,1.64c1.52,0.26,1.73,1.25,1.71,2.63
			c-0.05,2.41-0.47,4.43-3.14,4.99c-0.89,0.19-0.89,0.92-0.31,1.49c1.01,1,2.08,1.94,3.17,2.85c3.08,2.55,6.56,4.38,10.14,5.96
			c1.45,0.64,0.91,1.08,0.48,2.03c-0.15,0.32,0.46,1.41,0.92,1.59c2.33,0.93,4.56,2.35,7.12,2.32c1.91-0.03,3.62,0.21,5.21,1.49
			c0.88,0.71,2.05,1.04,3.13,1.44c0.42,0.15,1.08,0.23,1.37-0.01c1.33-1.13,2.85-0.21,4.26-0.59c3.59-0.98,6.84-2.74,10.07-4.6
			c2.45-1.41,4.9-2.69,7.88-2.19c1.82,0.3,3.68,0.31,5.36-1.08c0.56-0.46,2.04-0.4,2.63,0.08c1.89,1.54,4.02,1.22,6.04,1.08
			c2.18-0.15,3.74,0.56,4.42,2.68c0.8,2.5,2.27,3.56,4.7,3.39c0.37-0.03,0.77,0.5,1.17,0.76c1.31,0.82,2.51,0.66,3.91-0.01
			c2.46-1.17,5.04-2.03,7.54-3.13c2.23-0.98,5.3-2.38,6.99,1.62c0.47,1.1,1.46-1.16,2.13-0.28c1.64,2.14,3.66,2.73,6.17,2.51
			c2.56-0.22,5.15-0.08,7.72-0.14c3.81-0.08,5.07-0.41,8.17-3.01c1.2-1.01,2.33-1.44,3.79-1.5c0.6-0.03,1.14-0.92,1.77-1.05
			c0.72-0.15,1.25,1.46,2.24,0.41c0.74-0.78,1.18-0.21,1.29,0.54c0.2,1.32,0.64,1.67,1.71,0.8c0.34-0.28,0.77-0.42,1.17-0.62
			c0.14-0.83,0.59-1.32,1.35-1.48c-0.06-1.17-0.76-1.53-1.75-1.53c-4.51-0.01-9.02-0.01-13.54-0.02c0.08-1.14,0.98-1.11,1.75-1.53
			c1.81-0.99,3.56-2.09,5.53-2.7c1.21,1.1,2.25,0.56,3.58,0.01c1.22-0.51,2.76-0.13,4.16-0.15c1.15-0.01,2.28,0.08,3.27-0.86
			c0.97-0.92,2.2,1.23,3.44-0.33c0.58-0.73,2.25-0.36,3.18-0.93c1.05-0.66,1.85,0.4,2.34,0.23c1.06-0.38,1.94-1.13,3.21-1.05
			c1.86,0.11,3.73,0,5.6-0.01c1.63-0.01,3.27,0,4.9-0.02c1.87-0.03,3.78-0.37,5.59-0.03c1.83,0.34,3.18-2.26,4.47-1.18
			c2,1.68,3.32-0.65,5.07-0.3c1.8,0.36,3.73,0.11,5.58-0.06c2.03-0.18,4.16,0.6,6.09-0.9c1.86-1.45,3.45,0.36,5.14,0.82
			c0.21,0.06,0.55,0.07,0.67-0.06c1.72-1.86,3.94-1.44,5.96-1.25c2.42,0.24,4.23-1.65,6.67-1.5c4.19,0.27,8.4-0.06,12.61-0.02
			c2.03,0.02,4.22-0.51,5.93,1.37c0.19,0.21,1.1,0.1,1.28-0.16c1.29-1.87,2.32,0.21,3.46,0.19c0.43-2,2.07-1.22,3.25-1.42
			c0.9-0.15,1.83-0.05,2.27,1.05c0.29,0.71,0.04,2.11,1.51,1.15c1.14-0.74,2.34-1.42,3.57-1.97c0.57-0.25,1.42-0.42,1.79,0.44
			c0.27,0.64,0.33,1.33-0.17,2.01c-0.36,0.5-0.57,1.12-0.82,1.71c2.04,0.03,4.34-0.5,5.99,0.37c3.18,1.67,6.16,1.68,9.25,0.42
			c0.78-0.32,1.15-0.27,1.64,0.23c1.26,1.28,3.28,0,4.5,1.57c0.46,0.6,1.28,0.46,1.9,0.03c0.98-0.69,1.95-1.48,3.09-0.4
			c1.39,1.32,2.58-1.52,3.62-0.37c1.24,1.38,2.55-0.4,3.58,0.48c1.53,1.32,2.5-0.17,3.74-0.59c0.8-0.27,1.89-0.08,2.69,0.3
			c0.89,0.42,1.47,0.59,2.46,0.09c0.78-0.39,1.97,1.14,2.91-0.19c1.29,1.27,2.41,0.18,3.61-0.24c2-0.71,3.9,1.07,5.85,0.43
			c1.05-0.35,1.95,1.23,3.05-0.05c0.61-0.71,1.34,1.31,2.31,0.3c0.93-0.96,2.15-0.77,3.3-0.74c1.62,0.05,3.17,0.15,4.55-1.23
			c0.49-0.49,2.04-0.53,2.57-0.08c1.65,1.42,3.46,1.21,5.31,1.19c1.87-0.02,3.74,0.15,5.6,0c2.02-0.17,4.24,0.7,6-1.09
			c1.58,1.17,3.41,1.22,5.22,1.2c0.67-0.01,1.39-0.13,2-0.42c0.29-0.14,0.39-0.73,0.56-1.14c-1.64-0.68-2.57-2.24-3.73-3.49
			c-0.78-0.84-0.2-1.97,1.17-2.38c0.41-0.12,0.86-0.11,1.29-0.16c1.36-1.8,1.88-1.87,2.66-0.14c0.47,1.04,0.67,1.85,1.67,0.7
			c1.38-1.57,2.64-2.75,4.69-0.88c0.55,0.51,1.96,0.61,2.63,0.22c3.77-2.13,7.5-1.89,11.29-0.21c0.67,0.3,1.36,0.46,1.92-0.11
			c1.15-1.17,2.56-0.98,3.95-0.97c5.15,0.01,10.29-0.01,15.44,0.03c1.02,0.01,1.69-0.8,2.51-1c0.69-0.17,1.57,0.57,2.36,0.91
			c0.8,0.34,2.18,1.14,2.29,0.97c1.17-1.74,3.14,1.42,4.09-0.83c3.01,0.08,5.91-3.31,9.07-0.27c0.36,0.35,1.67,0.26,1.97-0.12
			c1.57-2.04,3.18,1.1,4.22,0.05c1.99-1.99,3.3,1.02,5.02,0.39c0.29-0.11,0.81,0.34,1.16,0.62c0.48,0.39,0.39,2.62-0.26,3.44
			c-0.69,0.87-1.35,2.17-2.68,0.75c-0.34-0.36-0.76-0.1-0.85,0.55c-0.11,0.77,0.13,1.67,0.82,1.81c4.06,0.86,8.38-1.24,12.33,1.18
			c0.06,0.04,0.65-0.55,0.7-0.89c0.18-1.31,0.68-1.81,1.62-0.7c1.16,1.38,2.44,2.2,4.25,2c2.48-0.27,5.13,0.81,7.43-1.03
			c0.05-0.04,0.71,0.47,0.75,0.77c0.16,1.27,0.59,1.78,1.67,0.86c0.86-0.73,1.71-0.77,2.47,0.02c0.99,1.05,1.59-0.38,2.26-0.3
			c0.82,0.1,1.38,1.12,2.45,1.18c2.03,0.1,4.21-0.6,6,1.23c0.27,0.27,1.36-0.03,1.85-0.39c2.8-2.09,5.93-2.47,9.23-2.42
			c1.58,0.02,3.47,0.71,4.74-0.54c2.03-1.99,3.37,0.82,5.09,0.5c1.02-2.1,2.86,0.63,4.16-0.83c0.49-0.55,2.08-0.79,2.59-0.38
			c1.79,1.46,3.15,0.96,5.05,0.09c1.58-0.72,3.82-0.64,5.52-0.06c1.82,0.62,3.34,0.31,5.07,0.11c0.86-0.1,1.74,1.07,2.96,0.08
			c1.15-0.93,2.05,0.64,3.09,0.94c1.42,0.41,2.33-1.66,3.86-1.1c0.21,0.08,0.4,0.26,0.59,0.4c0.78,0.6,1.66,1.16,2.52,0.42
			c1.86-1.59,4.04-0.8,6.07-1.07c1.37-0.18,2.81,0.16,4.19,0.03c1.1-0.1,1.6,1.85,2.99,0.73c1.08-0.87,2.36-1.51,3.63-2.05
			c0.6-0.26,1.38-0.07,2.07-0.08c1.87-0.02,3.75-0.15,5.61-0.03c2.03,0.14,3.37-1.43,5.07-2.09c0.83-0.32,0.16-0.07-0.17-0.42
			c-1.25-1.27,0.43-2.21,0.11-3.02c-1.05-2.71-2.06-5.67-5.77-5.07c-0.43,0.07-0.91-0.08-1.35-0.2c-0.21-0.06-0.38-0.28-0.57-0.43
			c0.16-0.15,0.31-0.42,0.48-0.43c2.08-0.15,4.25,0.07,6.22-0.49c2.19-0.62,4.2-2.36,6.37-0.08c1.02-1.33,2.4-1.2,3.82-1.23
			c2.31-0.05,4.62-0.31,6.62,1.3c2.15-1.35,4.26-2.8,6.48-4.01c0.84-0.46,1.64-0.09,2.09,1.15c0.41,1.12,2.98,1.94,3.34,1.24
			c0.96-1.84,3.01-3.51,2.2-5.8c-0.57-1.62-0.66-2.87-0.14-4.42c0.25-0.76-0.39-1.39-1.23-1.27c-0.4,0.05-0.98,0.29-1.09,0.6
			c-0.24,0.67-0.16,1.45-0.33,2.15c-0.1,0.42-0.41,0.79-0.63,1.18c-0.38-0.29-0.84-0.51-1.11-0.88c-0.42-0.56-0.85-1.18-1.02-1.85
			c-0.42-1.75-1.1-0.84-1.86-0.34c-0.36,0.23-1.02,0.48-1.26,0.3c-1.81-1.42-3.88-1.42-5.95-1.33c-1.43,0.06-2.78,0.1-3.98-0.95
			c-0.18-0.15-0.8,0.09-1.11,0.32c-1.57,1.17-2.91,0.35-3.46-1.02c-1.13-2.79-3.17-3.97-5.72-4.27c-1.64-0.19-3.09-1.04-4.59-1.31
			c-1.67-0.31-2.93-1.54-4.53-1.64c-1.87-0.12-3.67-0.24-5.24-1.54c-0.29-0.24-0.91,0.01-1.37-0.05c-1.24-0.17-2.02,1.73-3.73,0.46
			c-1.14-0.84-3.14-0.38-4.76-0.48c-1.17-0.07-2.25,0.07-3.28,0.9c-0.89,0.72-1.98,1.42-3.04,1.53c-1,0.1-2.06-0.78-3.12-0.88
			c-1.86-0.16-3.79,0.25-5.59-0.12c-2-0.41-3.6,1.66-5.85,0.4c-1.49-0.84-3.66-0.33-5.53-0.4c-0.47-0.02-0.96,0.17-1.4,0.05
			c-1.22-0.32-2.03,1.64-3.09,0.81c-1.26-0.98-2.74-0.43-4-1.09c-0.7-0.37-3.96-0.2-5.31-0.05c-0.64,0.07-1.65,0.14-1.91-0.24
			c-1.65-2.4-3.1-2.06-4.83-0.07c-0.86,0.99-2.2,0.84-3.25,0.25c-0.87-0.48-1.41-0.49-2.4-0.13c-1.47,0.54-3.17,0.45-4.78,0.47
			c-1.41,0.02-2.8-2-4.24-0.03c-1.64-0.01-3.3,0.15-4.9-0.1c-1.1-0.17-2.12-0.9-3.17-1.39c-0.49-0.23-0.92-1.56-0.61-1.9
			c0.31-0.33,0.68-0.87,1-0.85c2.05,0.08,4.21-0.75,6.09,0.81c0.87,0.73,1.75,0.54,2.53-0.12c0.79-0.66,1.66-0.82,2.61-0.75
			c2.26,0.16,4.68-0.78,6.69,1.19c0.23,0.22,1.01,0.14,1.3-0.1c1.84-1.56,3.97-1.13,6.05-1.16c2.1-0.03,4.2-0.09,6.3-0.14
			c2.14-1.97,4.19-1.12,6.42-0.02c0.97,0.48,2.18,0.57,3.28,0.96c0.83,0.29,1.99-0.75,3.03-0.85c4.58-0.42,9.28,0.98,13.75-1.19
			c0.79-0.39,1.32,1.31,2.44,0.65c0.78-0.46,1.71-0.7,2.6-0.83c0.75-0.11,1.53-0.36,1.62-1.07c0.35-2.73,2.29-2.53,3.6-1.73
			c2.06,1.25,3.79,1.73,5.68-0.05c1.77,2.02,1.96,0.27,2.45-1.09c0.11-0.3,0.61-0.43,1-0.61c-0.01-0.8-0.42-1.47-1.13-1.32
			c-0.86,0.19-1.59,0.93-2.44,1.24c-1.29,0.48-2.08-0.77-3.09-1.25c-1.18-0.56-1.74,1.69-3.02,0.63c-0.51-0.42-1.22-0.73-1.86-0.8
			c-0.92-0.1-1.86,0.09-2.79,0.11c-0.83,0.02-1.26,1.74-2.32,0.64c-0.62-0.64-1.52-1.11-1.48-2.24c1.38-0.72,2.83-1.34,4.11-2.23
			c1.31-0.9,2.83-1.06,4.01-0.55c2.46,1.07,4.73,1.75,7.12,0.01c0.16-0.11,0.52-0.11,0.68,0.01c2.96,2.29,6.33,0.85,9.49,1.26
			c2.23,0.28,4.01-0.87,5.92-1.64c0.74-0.3,0.93-1.09,0.74-1.81c-0.1-0.38-0.55-0.82-0.92-0.92c-1.09-0.3-2.3-0.02-3.22-1.06
			c-2.56-2.9-5.83-3.64-9.45-3.46c-2.33,0.12-4.68,0.16-7-0.04c-2.25-0.2-4.68,0.62-6.75-1.19c-0.31-0.27-1.24,0.23-1.87,0.42
			c-0.64,0.19-1.47,0.83-1.87,0.59c-1.44-0.85-2.95-1.22-4.53-1.48c-0.68-0.11-0.74-0.58-0.24-1.05c0.17-0.16,0.28-0.39,0.44-0.57
			c0.88-1.01,1.92-1.6,0.8-3.53c-0.86-1.47-1.47-2.25-3.05-2.19c-0.39,0.02-0.8-0.38-1.2-0.59c0.53-0.3,1.05-0.63,1.6-0.9
			c0.57-0.29,0.66-0.59,0.42-1.08c-0.71-1.46-2.16-1.7-3.33-2.41c-0.27-0.16-0.37-0.86-0.33-1.3c0.06-0.61,0.52-0.9,0.85-0.58
			c2.03,1.89,4.81-0.08,6.63,1.18c2.4,1.67,4.28,1.03,6.41-0.08c0.19-0.1,0.56-0.12,0.67,0c1.7,1.86,4.18,0.64,5.91,1.54
			c3.65,1.89,7.77,0.4,11.32,2.32c1.58-1.62,2.79,1.09,4.42,0.4c0.92-0.39,1.63-0.73,1.69-1.84c0.06-1.05-0.14-1.98-0.87-2.69
			c-0.85-0.83,0.08-1.25,0.34-1.79c0.23-0.48,0.14-0.98-0.45-0.97c-0.63,0-1.31,0.33-1.87,0.69c-0.51,0.34-0.83,0.5-1.1,0.1
			c-0.12-0.18-0.21-0.42-0.24-0.65c-0.12-0.86,0.35-1.38,1.05-1.59c0.43-0.13,0.93-0.01,1.39-0.08c3.16-0.46,6.51,0.83,9.53-1.24
			c0.4-0.27,1.27,0.21,1.92,0.38c0.88,0.23,1.76,0.68,2.64,0.69c6.07,0.08,12.14,0.08,18.22,0.1c0.23,0,0.54,0.05,0.68-0.08
			c0.26-0.25,0.48-0.59,0.6-0.93c0.05-0.13-0.27-0.38-0.37-0.6c-0.87-1.9-2.35,0.21-3.43-0.6c-0.75-0.55-1.86-0.69-2.42-1.37
			c-1.11-1.36-2.05,0.72-2.94,0c-2.8-2.24-6.59,0.54-9.29-2.11c-0.06-0.06-0.4,0.11-0.55,0.24c-2.3,1.91-3.73-0.78-5.59-1.18
			c-0.01-2.27-1.94-2.72-3.25-3.17c-2.11-0.74-4.09-2.02-6.38-2.17c-0.67-0.04-1.25-0.15-1.57-0.85c0.41-0.19,0.81-0.53,1.23-0.55
			c2.57-0.09,5.14-0.07,7.7-0.2c0.63-0.03,1.48-0.3,1.8-0.79c0.33-0.5,0.23-1.32,0.27-2.03c1.11-0.08,2.23-0.09,3.32-0.29
			c0.29-0.05,0.62-0.69,0.68-1.1c0.05-0.4-0.2-1.21-0.36-1.22c-2.5-0.18-4.54-2.17-7.14-1.94c-1.38,0.12-2.79-0.08-4.17,0.07
			c-1.66,0.18-3.14-0.08-4.45-1.21c-1.08,1.15-2.38,1.33-3.84,1.14c-3.37-0.45-6.94,1.09-10.13-1.2c-0.07-0.05-0.37,0.25-0.55,0.4
			c-1.24,0.98-2.77,1.2-3.86,0.27c-1.57-1.33-2.54,1.04-3.72,0.36c-1.2-0.69-2.33-1.39-3.73-1.38c-0.17-1.05,0.21-2.39-1.21-2.8
			C515.66,361.86,514.89,362.57,514.51,365.19z M511.02,343.21c0.1-0.04,0.26,0.12,0.39,0.19c0,0.14,0.05,0.34-0.01,0.43
			c-0.28,0.37-0.58,0.28-0.81-0.25C510.57,343.53,510.85,343.27,511.02,343.21z M492.13,330.88c0.02,0.06,0.04,0.13,0.06,0.19
			c0.32,0.1,0.69,0.16,0.85,0.39c0.26,0.38-0.07,0.75-0.44,0.5c-0.22-0.15-0.3-0.55-0.41-0.89c-0.06-0.02-0.12-0.03-0.18-0.05
			L492.13,330.88z M489.64,331.54c0.3-0.18,0.63-0.31,0.95-0.45c0-0.07,0.01-0.15,0.02-0.22l0.14,0.14
			c-0.05,0.02-0.1,0.05-0.16,0.08c-0.03,0.55-0.09,1.09-0.89,0.94C489.65,332.02,489.59,331.57,489.64,331.54z M489.52,335.57
			c0.29,0.03,0.54,0.51,0.81,0.79c-0.42,0.14-0.84,0.42-1.24,0.38c-0.28-0.02-0.52-0.47-0.78-0.73
			C488.72,335.85,489.13,335.53,489.52,335.57z M480.57,334c0.65-0.11,1.34-0.09,1.98,0.04c0.3,0.06,0.54,0.5,0.8,0.77
			c-0.17,0.15-0.33,0.37-0.52,0.42c-0.42,0.11-0.85,0.14-1.28,0.2c-0.43-0.06-0.86-0.09-1.28-0.21c-0.19-0.06-0.35-0.28-0.52-0.43
			C480.02,334.51,480.26,334.05,480.57,334z M37.75,346.94c-0.2-0.16-0.39-0.32-0.59-0.47c0.14-0.14,0.29-0.28,0.43-0.42
			c0.13,0.16,0.26,0.31,0.38,0.47C37.9,346.65,37.83,346.8,37.75,346.94z M104.98,326.18c-0.08-0.01-0.16-0.08-0.24-0.17
			c-0.08-0.09-0.15-0.21-0.23-0.29c0.09-0.08,0.18-0.19,0.27-0.28c0.09-0.09,0.18-0.16,0.27-0.15c0.17,0.01,0.32,0.33,0.48,0.51
			C105.34,325.94,105.15,326.19,104.98,326.18z M129,473.93c-0.13-0.07-0.27-0.13-0.4-0.2c0.14-0.21,0.28-0.42,0.43-0.63
			c0.14,0.14,0.27,0.29,0.41,0.43C129.29,473.66,129.15,473.8,129,473.93z M136.72,474.29c-0.06,0.02-0.12,0.04-0.19,0.06
			c-0.11,0.36-0.18,0.77-0.41,0.95c-0.35,0.28-0.71-0.1-0.46-0.52c0.14-0.24,0.53-0.32,0.87-0.43c0.02-0.07,0.03-0.13,0.06-0.19
			L136.72,474.29z M262.14,465.2c-0.42,0.14-0.82,0.06-1.13-0.19c-0.31-0.25-0.55-0.65-0.64-1.16c0.14-0.4,0.29-0.81,0.43-1.21
			c0.63,0.55,1.27,1.08,1.84,1.69C262.71,464.39,262.39,465.12,262.14,465.2z M273.69,464.93c-1.17,0.77-3,0.36-3.46-0.84
			c-0.13-0.34,0.19-0.86,0.33-1.44c1.17,0.61,2.32,1.21,3.46,1.81C273.91,464.61,273.84,464.83,273.69,464.93z M304.05,463.01
			c-0.03-0.09,0.3-0.3,0.44-0.45c0.16,0.17,0.49,0.41,0.46,0.48C304.65,463.78,304.3,463.77,304.05,463.01z M312.93,293.43
			c-0.07,0.03-0.33-0.29-0.4-0.49c-0.02-0.06,0.02-0.13,0.07-0.21c0.05-0.08,0.12-0.17,0.16-0.25c0.08,0,0.16-0.01,0.25-0.01
			c0.08,0,0.16,0,0.21,0.05C313.59,292.82,313.49,293.17,312.93,293.43z M322.76,462.09c-0.05,0.03-0.29-0.26-0.36-0.44
			c-0.03-0.09,0.12-0.26,0.18-0.4c0.14,0.01,0.33-0.04,0.43,0.03C323.35,461.54,323.26,461.85,322.76,462.09z M334.17,463.49
			c-1.75-1.65-2.74-0.09-3.76,1.06c-0.44,0.5-0.68,0.6-1.07,0.12c-1.25-1.52-2.41-0.74-3.58,0.16c-0.06,0.04-0.75-0.56-0.7-0.71
			c0.39-1.32,0.88-2.62,1.36-3.91c0.08-0.21,0.35-0.56,0.43-0.53c0.41,0.14,0.78,0.39-0.3-0.2c3.36,2.01,5.53,0.84,7.46,1.61
			c0.31,0.12,0.58,0.74,0.61,1.15C334.64,462.65,334.33,463.08,334.17,463.49z M339.42,462.51c-0.34,0.43-0.9,0.68-1.32,0.97
			c-0.7-0.76-0.53-1.44-0.24-2.05c0.38-0.81,1.18-0.69,1.72-0.44C340.65,461.5,339.73,462.11,339.42,462.51z M342.43,463.52
			c-0.06,0.03-0.3-0.26-0.37-0.45c-0.03-0.09,0.13-0.27,0.2-0.41c0.14,0.01,0.33-0.04,0.43,0.03
			C343.04,462.97,342.95,463.29,342.43,463.52z M346,461.63c-0.02,0.24-0.02,0.71-0.11,1.16c-0.04,0.2-0.33,0.53-0.41,0.5
			c-0.32-0.11-0.8-0.3-0.85-0.54c-0.13-0.68-0.16-1.41-0.06-2.09c0.06-0.39,0.47-0.72,0.72-1.08c0.23,0.38,0.5,0.73,0.69,1.13
			C346.08,460.9,346,461.17,346,461.63z M348.69,293.73c-0.12,0.38-0.2,0.84-0.44,0.97c-0.43,0.24-0.79-0.17-0.52-0.53
			C347.92,293.92,348.33,293.85,348.69,293.73c0.02-0.05,0.03-0.11,0.05-0.15l0.1,0.11C348.79,293.71,348.74,293.72,348.69,293.73z
			 M397.52,306.43c-0.01,0.07-0.33,0.18-0.42,0.12c-0.18-0.12-0.43-0.33-0.43-0.51c-0.05-1.12-0.04-2.25-0.05-3.37
			c-0.04,0-0.08-0.02-0.12-0.01l0.12-0.12c0,0.05,0,0.09,0,0.14c0.69,0.02,1.22,0.42,1.26,1.1
			C397.92,304.64,397.67,305.54,397.52,306.43z M424.09,311.1c-0.03,0.06-0.46-0.03-0.46-0.08c-0.08-0.79,0.39-0.85,0.88-0.88
			c0.02-0.05,0.05-0.11,0.07-0.16l0.14,0.14c-0.07,0.01-0.14,0.01-0.21,0.02C424.38,310.46,424.26,310.79,424.09,311.1z
			 M431.07,317.84c0.13,0.14,0.26,0.29,0.39,0.43c-0.15,0.13-0.29,0.25-0.44,0.38c-0.13-0.07-0.27-0.15-0.4-0.22
			C430.77,318.23,430.92,318.03,431.07,317.84z M437.17,464.07c-0.09,0.71-0.65,1.21-1.48,1.07c-0.8-0.13-1.16-0.62-1.16-1.45
			c0-0.46,0-0.91,0-1.37c-0.04,0.01-0.07,0.03-0.12,0.04c0-0.04-0.01-0.07-0.01-0.1c-1.41,0.19-1.12,1.82-1.84,2.58
			c-0.59,0.63-2.01,0.19-2.23-0.68c-0.61-2.38,0.56-3.72,2.96-3.32c0.69,0.11,1.1,0.64,1.11,1.42c0.05-0.01,0.08-0.02,0.13-0.03
			c0,0.03,0,0.06,0,0.09c0.99-0.21,1.36-0.95,1.46-1.97c0.02-0.21,0.34-0.57,0.37-0.55c0.31,0.17,0.81,0.39,0.82,0.62
			C437.27,461.63,437.32,462.87,437.17,464.07z M439.35,463.6c-0.05,0.03-0.31-0.28-0.38-0.47c-0.04-0.11,0.12-0.29,0.19-0.45
			c0.15,0,0.34-0.06,0.43,0.01C439.96,462.99,439.87,463.33,439.35,463.6z M439.62,460.42c-0.2-0.15-0.41-0.31-0.61-0.46
			c0.14-0.14,0.28-0.29,0.43-0.43c0.13,0.16,0.26,0.31,0.39,0.47C439.75,460.14,439.68,460.28,439.62,460.42z M443.9,463.27
			c-0.24,0.38-0.54,0.28-0.75-0.27c-0.03-0.07,0.24-0.32,0.41-0.4c0.08-0.04,0.24,0.13,0.35,0.2
			C443.91,462.96,443.96,463.16,443.9,463.27z M445.31,460.26c-0.26,0.36-0.56,0.27-0.8-0.25c-0.02-0.05,0.25-0.31,0.42-0.37
			c0.1-0.04,0.26,0.12,0.38,0.18C445.32,459.97,445.37,460.16,445.31,460.26z M446.53,464.82c-0.23-0.27-0.64-0.54-0.65-0.83
			c-0.01-0.42,0.26-0.86,0.41-1.28c0.25,0.28,0.58,0.52,0.74,0.85C447.28,464.09,447.08,464.53,446.53,464.82z M449.43,429.08
			c-0.2-0.16-0.4-0.32-0.61-0.48c0.14-0.15,0.29-0.3,0.43-0.44c0.13,0.16,0.26,0.32,0.39,0.48
			C449.57,428.79,449.5,428.94,449.43,429.08z M454.78,430.64c-0.14-0.17-0.29-0.34-0.43-0.52c0.17-0.15,0.35-0.43,0.49-0.41
			c0.09,0.01,0.17,0.09,0.24,0.19c0.08,0.1,0.15,0.21,0.23,0.3C455.14,430.35,454.96,430.49,454.78,430.64z M579.99,449.22
			c0.14,0.15,0.28,0.29,0.42,0.44c-0.15,0.14-0.3,0.28-0.45,0.41c-0.13-0.06-0.27-0.13-0.4-0.19
			C579.7,449.67,579.84,449.44,579.99,449.22z M512.99,441.5L512.99,441.5C512.99,441.5,512.99,441.5,512.99,441.5
			c0.38,0.14,0.76,0.28,1.14,0.42c-0.17,0.27-0.38,0.8-0.49,0.78c-0.59-0.12-1.15-0.38-1.73-0.59
			C512.27,441.9,512.63,441.7,512.99,441.5z M509.01,441.56c0.39,0.01,0.76,0.38,1.14,0.59c-0.4,0.18-0.81,0.35-1.21,0.53
			c0,0,0,0,0,0h0c-0.36-0.2-0.73-0.4-1.09-0.6C508.24,441.9,508.63,441.55,509.01,441.56z M493.14,439.99
			c1.58-0.07,3.18-0.08,4.76,0c0.35,0.02,0.68,0.47,1.01,0.72c-0.38,0.23-0.73,0.6-1.13,0.66c-0.66,0.11-1.36,0.03-2.97,0.03
			c0.03,0-0.87-0.03-1.77-0.13c-0.19-0.02-0.52-0.38-0.5-0.42C492.7,440.53,492.92,440,493.14,439.99z M484.38,440.11
			c1.8-0.02,3.6-0.01,5.39,0.04c0.19,0,0.37,0.27,0.55,0.41c-0.1,0.15-0.17,0.38-0.3,0.45c-0.8,0.43-1.6,0.84-2.42,1.23
			c-1.56,0.77-2.04,0.61-3.42-1.13c-0.15-0.18-0.37-0.43-0.34-0.6C483.88,440.34,484.19,440.12,484.38,440.11z M473.44,440.04
			c0.64-0.11,1.33-0.04,3.22-0.04c-0.02,0-0.04-0.01-0.06-0.01c-0.46-0.04-0.3-0.07,0,0c0.06,0.01,0.08,0.01,0.17,0.02
			c-0.04,0-0.07,0-0.11,0c0.04,0.01,0.08,0.02,0.12,0.03c0.33,0.12,0.58,0.49,0.86,0.75c-0.16,0.17-0.3,0.39-0.49,0.48
			c-0.6,0.29-1.31,0.4-1.82,0.8c-1.07,0.84-1.56-0.13-2.19-0.65c-0.17-0.14-0.41-0.46-0.36-0.57
			C472.94,440.53,473.18,440.08,473.44,440.04z M472.27,353.52c-0.13,0.81-0.56,1.27-1.37,1.26c-0.7,0-1.39,0-2.28,0
			c-0.25-0.06-0.69-0.13-1.12-0.28c-0.21-0.07-0.37-0.29-0.55-0.44c0.18-0.15,0.35-0.33,0.56-0.44c1-0.54,1.99-1.15,3.04-1.54
			c0.62-0.23,1.36-0.03,1.73,0.72C472.37,352.98,472.31,353.28,472.27,353.52z M495.57,366.51c-0.06,0.03-0.3-0.26-0.36-0.44
			c-0.03-0.09,0.13-0.26,0.21-0.39c0.14,0.01,0.33-0.03,0.43,0.05C496.18,365.98,496.08,366.29,495.57,366.51z M498.37,365.04
			c-0.06,0.03-0.29-0.25-0.36-0.43c-0.03-0.08,0.12-0.25,0.18-0.38c0.15,0.01,0.33-0.04,0.43,0.03
			C498.96,364.51,498.87,364.82,498.37,365.04z M502.14,391.35c-0.02-0.07,0.32-0.29,0.5-0.44c0.16,0.17,0.48,0.43,0.45,0.5
			C502.76,392.1,502.4,392.08,502.14,391.35z M506.8,366.48c-0.15-0.18-0.41-0.36-0.4-0.53c0.01-0.17,0.32-0.46,0.46-0.44
			c0.09,0.02,0.17,0.1,0.25,0.2c0.08,0.1,0.15,0.21,0.23,0.3c-0.08,0.07-0.16,0.14-0.24,0.21C507,366.31,506.9,366.4,506.8,366.48z
			 M518.49,416.2c1.06-0.31,1.52,0.28,1.62,1.31c0.04-0.02,0.09-0.05,0.13-0.07l-0.12,0.14c0-0.03-0.01-0.05-0.01-0.07
			c-0.52,0.28-1.07,0.52-1.52,0.9c-0.49,0.41-0.77,0.46-1-0.12c-0.08-0.19-0.11-0.41-0.13-0.63
			C517.37,416.84,517.83,416.39,518.49,416.2z M515.1,366.3c-0.16-0.29-0.28-0.62-0.41-0.93c-0.07,0-0.13-0.01-0.2-0.02l0.13-0.14
			c0.02,0.05,0.05,0.11,0.07,0.16c0.48,0.03,0.95,0.09,0.86,0.87C515.54,366.28,515.13,366.35,515.1,366.3z M556.19,370.23
			c0.22,0.15,0.29,0.54,0.39,0.88c0.07,0.02,0.14,0.03,0.19,0.06l-0.13,0.15c-0.02-0.06-0.04-0.14-0.06-0.21
			c-0.33-0.1-0.69-0.16-0.85-0.39C555.47,370.35,555.8,369.98,556.19,370.23z M541.6,374.87c0.05-0.08,0.11-0.16,0.15-0.24
			c0.08,0.01,0.17,0,0.25-0.01c0.08,0,0.16,0.01,0.21,0.05c0.37,0.28,0.28,0.62-0.28,0.87c-0.07,0.03-0.33-0.28-0.4-0.47
			C541.51,375.02,541.55,374.95,541.6,374.87z M533.54,370.04c0.09-0.03,0.29,0.3,0.43,0.47c-0.16,0.15-0.39,0.47-0.47,0.44
			C532.83,370.64,532.85,370.28,533.54,370.04z M527.7,370.3c0.55-0.65,2.61-0.65,3.2,0c0.07,0.07,0.06,0.34-0.02,0.43
			c-0.15,0.19-0.34,0.41-0.54,0.44c-0.46,0.07-0.93,0.02-1.37,0.02c-0.45-0.15-0.87-0.29-1.28-0.47
			C527.65,370.7,527.63,370.38,527.7,370.3z M518.64,365.36c0.02-0.05,0.04-0.1,0.07-0.16l0.13,0.13
			C518.77,365.35,518.71,365.35,518.64,365.36c-0.12,0.32-0.24,0.64-0.4,0.94c-0.03,0.06-0.44,0-0.45-0.05
			C517.68,365.47,518.17,365.42,518.64,365.36z"/>
		<path class="st0" d="M246.28,463.72c-0.02,0-0.05-0.01-0.07-0.01c-0.01,0.05-0.03,0.08-0.04,0.13L246.28,463.72z"/>
		<path class="st0" d="M35.58,341.47c0-0.05,0.03-0.08,0.04-0.12c-0.07-0.01-0.13-0.04-0.2-0.05L35.58,341.47z"/>
		<path class="st0" d="M352.92,466.71c-0.01,0.02-0.01,0.04-0.02,0.05c0.06,0.02,0.11,0.07,0.17,0.09L352.92,466.71z"/>
		<path class="st0" d="M324.59,287.55c1.94-0.59,3.85-1.29,5.74-2.03c0.84-0.33,1.74-0.72,2.37-1.35c0.41-0.41,0.56-1.32,0.52-1.99
			c-0.13-1.96-1.3-3.3-2.94-3.39c-1.84-0.1-3.75-0.28-5,1.71c-0.25,0.39-0.97,0.96-1,0.93c-1.75-1.77-2.06-0.31-2.47,1.15
			c-0.26,0.91-0.78,1.74-1.05,2.65c-0.4,1.37,0.37,2.37,1.76,2.34C323.21,287.58,323.95,287.75,324.59,287.55z"/>
		<path class="st0" d="M70.72,476.52c-0.74-0.47-1.18-0.3-1.68,0.23c-0.8,0.86-1.68,1.68-2.36,2.64c-0.38,0.54-0.44,1.4,0.21,1.9
			c0.32,0.25,1.02,0.48,1.21,0.3c1.75-1.58,2.43-0.43,3.1,1.17c0.11,0.25,0.95,0.47,1.21,0.29c0.91-0.64,1.72-1.45,2.46-2.1
			c-0.16-0.76-0.17-1.25-0.36-1.67C73.76,477.59,72.05,477.36,70.72,476.52z"/>
		<path class="st0" d="M538.48,422.63c0.08,0.68,0.17,1.58,0.59,1.95c0.82,0.73,1.63,0.18,2.36-0.53c0.9-0.87,1.65-2.65,3.2-0.86
			c0.66-0.6,1.41-1.14,1.91-1.87c0.1-0.14-0.65-1.14-1.16-1.52c-0.53-0.39-1.24-0.53-1.88-0.73c-1.94-0.59-3.42,0.6-5,1.42
			C538.48,421.22,538.4,421.94,538.48,422.63z"/>
		<path class="st0" d="M538.5,420.51c0-0.02,0-0.05,0-0.07l-0.13,0.14C538.42,420.55,538.46,420.53,538.5,420.51z"/>
		<path class="st0" d="M81.25,481.27c1.32-0.62,1.92-1.04,2.1,0.88c0.02,0.19,0.56,0.33,0.86,0.49c0.58-2.01,1.26-4,1.7-6.05
			c0.13-0.58-0.49-0.74-0.93-0.31c-0.93,0.91-1.92,1.3-3.03,0.27c-0.34-0.31-0.73-0.66-1.14-0.73c-0.4-0.07-0.84,0.18-1.27,0.3
			c0.11,0.38,0.12,0.86,0.35,1.11c0.42,0.47,0.53,0.81,0.14,1.21C79.66,480.08,80.35,481.69,81.25,481.27z"/>
		<path class="st0" d="M508.74,356.43c-1.36-0.08-2.83,0.35-4.01-0.76c-1.2-1.13-2.66-0.57-4-0.73c-0.41,0.17-1.19,0.4-1.18,0.49
			c0.13,0.81,0.77,0.82,1.41,0.89c0.66,0.07,1.41,0.14,1.95,0.5c0.78,0.52,1.37,1.34,2.11,1.93c0.88,0.71,1.75-1.41,2.84,0.01
			c0.68,0.89,1.67,0.46,2.28-0.46c0.11-0.17,0.09-0.49,0.05-0.73C510.03,356.73,509.53,356.47,508.74,356.43z"/>
		<path class="st0" d="M114.83,296.68c-0.62-0.03-1.52-0.03-1.94,1.12c-0.24,0.67-0.44,1.39-0.84,1.94c-0.4,0.56-0.5,1.03,0.08,1.09
			c1.63,0.16,2.63,2.15,4.44,1.65c0.43-0.12,1.12-0.12,1.23-0.38c0.4-1.04-0.57-0.84-1.03-1.03c-1.09-0.44-1.2-1.28-0.95-2.32
			C116.33,296.69,116.33,296.69,114.83,296.68z"/>
		<path class="st0" d="M562.03,460.94c-0.87-0.04-1.22,1.65-2.28,0.78c-0.75-0.62-1.54-1.26-2.45-0.59
			c-0.74,0.55-1.38,1.32-1.91,2.11c-0.18,0.27,0.08,0.91,0.21,1.36c0.04,0.14,0.4,0.34,0.45,0.3c2-1.79,4.43-0.95,6.67-1.27
			c0.68-0.1,1.01-0.88,0.84-1.67C563.37,461.09,562.75,460.98,562.03,460.94z"/>
		<path class="st0" d="M346.49,280.2c0.63-1.31,1.37-2.6,1.83-4c0.09-0.28-0.82-1.04-1.37-1.42c-0.19-0.13-0.77,0.13-1.02,0.38
			c-1.36,1.38-1.66,2.78-0.88,4.36C345.2,279.82,345.79,279.88,346.49,280.2z"/>
		<path class="st0" d="M33.19,484.54c0.6-0.12,0.71-0.49,0.49-0.92c-0.89-1.73-2.75-2.38-4.55-1.47c-0.28,0.14-0.48,0.77-0.46,1.16
			c0.02,0.39,0.29,0.97,0.58,1.09c0.6,0.24,1.29,0.23,1.83,0.31C31.86,484.66,32.54,484.67,33.19,484.54z"/>
		<path class="st0" d="M549.04,422.28c-0.2,0.05-0.36,0.28-0.54,0.42c0.17,0.15,0.33,0.39,0.52,0.44c1.04,0.3,2.08,0.56,3.13,0.81
			c0.51,0.12,1.07,1.37,1.5,0.14c0.28-0.81,0.09-1.81,0.06-2.72c-0.01-0.19-0.26-0.37-0.4-0.56
			C552.1,421.99,550.5,421.9,549.04,422.28z"/>
		<path class="st0" d="M162.48,475.6c0.2-0.05,0.36-0.26,0.54-0.4c-0.04-0.18-0.05-0.39-0.14-0.55c-0.89-1.62-2.27-2.16-3.94-1.86
			c-0.33,0.06-0.63,0.45-0.89,0.74c-0.04,0.04,0.21,0.38,0.34,0.57C159.43,475.62,160.83,476.03,162.48,475.6z"/>
		<path class="st0" d="M366.89,465.33c-0.33,0.23-0.68,0.48-1.04,0.72c0.17,0.16,0.32,0.37,0.51,0.48c0.98,0.55,1.96,1.13,2.99,1.56
			c0.35,0.15,1.03,0.04,1.27-0.24c0.67-0.77-0.23-1.12-0.57-1.58C369.24,465.16,368.05,465.33,366.89,465.33z"/>
		<path class="st0" d="M510.44,333.77c0.32-0.05,0.6-0.47,0.89-0.73c-0.4-0.19-0.79-0.53-1.2-0.56c-0.93-0.07-1.87-0.05-2.79,0.08
			c-0.33,0.04-0.61,0.47-0.91,0.73c0.19,0.15,0.36,0.39,0.56,0.43c0.44,0.09,0.9,0.08,1.07,0.09
			C509.05,333.8,509.76,333.88,510.44,333.77z"/>
		<path class="st0" d="M563.8,371.04c0.8-0.11,1.28-0.46,1.15-1.27c-0.15-1.15-0.49-1.49-1.38-1.33c-0.71,0.12-1.28,0.45-1.13,1.43
			C562.56,370.73,562.94,371.15,563.8,371.04z"/>
		<path class="st0" d="M563.22,424.44c0.49,0.01,1.21-0.81,1.41-1.41c0.13-0.38-0.44-1.12-0.82-1.57c-0.23-0.27-0.71-0.3-1.07-0.43
			c-0.14,0.44-0.29,0.87-0.44,1.33C562.46,423.14,561.93,424.41,563.22,424.44z"/>
		<path class="st0" d="M150.75,477.25c0.08,1.14,0.78,1.62,1.72,1.29c1.01-0.35,1.89-1.06,2.07-2.33c0.02-0.12-0.31-0.4-0.49-0.41
			c-0.63-0.05-1.27-0.02-1.9-0.02C152.03,476.64,151.55,477.11,150.75,477.25z"/>
		<path class="st0" d="M121.22,315.33c-0.02-0.24,0.01-0.5-0.07-0.72c-0.16-0.44-0.37-0.85-0.57-1.28
			c-0.26,0.34-0.57,0.65-0.76,1.03c-0.41,0.83-0.76,1.69-1.13,2.54c0.39,0.17,0.79,0.48,1.18,0.47
			C121.11,317.34,121.15,316.3,121.22,315.33z"/>
		<path class="st0" d="M99.53,317.97c-1.04-0.83-3.07-0.44-3.47,0.72c-0.12,0.35,0.17,0.87,0.32,1.51c1.16-0.61,2.29-1.19,3.41-1.78
			C99.71,318.27,99.65,318.07,99.53,317.97z"/>
		<path class="st0" d="M293.47,294.59c0.06-0.02,0.09-0.38,0.02-0.47c-0.54-0.67-2.57-0.64-3.17,0.05c-0.08,0.09-0.06,0.43,0,0.46
			c0.4,0.2,0.82,0.34,1.46,0.59C292.23,295.05,292.86,294.84,293.47,294.59z"/>
		<path class="st0" d="M179.94,471.34c-0.31,0.06-0.56,0.49-0.83,0.75c0.17,0.14,0.33,0.36,0.52,0.42c0.41,0.11,0.85,0.13,1.27,0.19
			c0.42-0.04,0.86-0.04,1.27-0.14c0.19-0.05,0.34-0.28,0.51-0.44c-0.25-0.28-0.48-0.74-0.77-0.79
			C181.27,471.21,180.58,471.22,179.94,471.34z"/>
		<path class="st0" d="M14.59,466.53c-0.05,0.41,0.16,0.84,0.3,1.49c0.51-0.38,1-0.67,1.39-1.06c0.3-0.3,0.47-0.73,0.7-1.1
			c-0.37-0.17-0.73-0.42-1.11-0.49C15.06,465.24,14.67,465.8,14.59,466.53z"/>
		<path class="st0" d="M355.26,464.16c-0.09-0.16-0.36-0.27-0.55-0.29c-0.69-0.07-1.38,0.12-1.57,0.87c-0.15,0.6-0.08,1.25-0.07,1.9
			c0.53-0.28,1.1-0.51,1.55-0.89C355.04,465.38,355.71,464.96,355.26,464.16z"/>
		<path class="st0" d="M353.07,466.63c-0.05,0.02-0.1,0.05-0.14,0.07l0.15,0.14C353.07,466.78,353.07,466.71,353.07,466.63z"/>
		<path class="st0" d="M247.62,465.97c0.24,0.22,0.69,0.3,1.02,0.27c0.4-0.04,0.4-1.46,0.01-1.89c-0.68-0.74-1.53-0.55-2.36-0.51
			C246.25,464.87,247,465.4,247.62,465.97z"/>
		<path class="st0" d="M246.29,463.84c0-0.04-0.02-0.07-0.01-0.12l-0.11,0.12C246.21,463.84,246.25,463.84,246.29,463.84z"/>
		<path class="st0" d="M566.19,462.39c-0.28,0.04-0.49,0.51-0.73,0.79c0.17,0.14,0.32,0.37,0.52,0.41c0.41,0.1,0.84,0.1,1.02,0.12
			c0.45,0,0.69,0.06,0.88-0.01c0.39-0.15,0.75-0.37,1.13-0.56c-0.29-0.24-0.55-0.61-0.87-0.68
			C567.5,462.32,566.82,462.29,566.19,462.39z"/>
		<path class="st0" d="M142.72,479.22c0.16,0.29,0.33,0.83,0.47,0.82c0.57-0.04,1.13-0.25,1.83-0.43c-0.51-0.36-0.83-0.74-1.18-0.78
			C143.49,478.78,143.09,479.07,142.72,479.22z"/>
		<path class="st0" d="M60.32,487.52c0.61,0.04,1.29,0.05,1.49-0.78c0.03-0.11-0.32-0.32-0.52-0.52c-0.53,0.16-1.28-0.08-1.44,0.82
			C59.81,487.17,60.14,487.51,60.32,487.52z"/>
		<path class="st0" d="M215.88,467.19c-0.15,0.43-0.42,0.87-0.41,1.29c0.01,0.29,0.43,0.56,0.66,0.83c0.55-0.29,0.76-0.74,0.5-1.27
			C216.48,467.7,216.14,467.47,215.88,467.19z"/>
		<path class="st0" d="M361.94,464.24c-0.61,0.53-0.55,1.18-0.26,1.84c0.09,0.2,0.29,0.35,0.43,0.52c0.16-0.17,0.36-0.3,0.46-0.5
			c0.31-0.64,0.42-1.29-0.19-1.82C362.28,464.21,362.08,464.26,361.94,464.24z"/>
		<path class="st0" d="M409.1,300.57c-0.04-0.22-0.54-0.4-0.85-0.49c-0.09-0.03-0.38,0.3-0.39,0.48c-0.05,0.66-0.03,1.33-0.03,2
			c0.44,0,0.89-0.01,1.33-0.01C409.15,301.88,409.21,301.21,409.1,300.57z"/>
		<path class="st0" d="M538.69,403.3c0.54,0.22,1.07,0.5,1.62,0.62c0.13,0.03,0.36-0.51,0.54-0.77c-0.5-0.69-1.09-0.56-1.68-0.29
			C538.99,402.96,538.85,403.16,538.69,403.3z"/>
		<path class="st0" d="M114.43,313.77c0.32,0.24,0.65,0.48,0.98,0.72c0.37-0.15,0.75-0.3,1.12-0.46c-0.15-0.29-0.35-0.86-0.45-0.84
			C115.52,313.31,114.98,313.56,114.43,313.77z"/>
		<path class="st0" d="M123.58,303.15c-0.49-0.86-1.11-0.53-1.69-0.3c-0.19,0.08-0.32,0.3-0.47,0.46c0.56,0.22,1.11,0.49,1.68,0.61
			C123.21,303.95,123.43,303.4,123.58,303.15z"/>
		<path class="st0" d="M355.24,274.6c-0.14,0.22-0.28,0.43-0.42,0.65c0.13,0.06,0.26,0.12,0.39,0.18c0.15-0.14,0.29-0.27,0.44-0.41
			C355.52,274.88,355.38,274.74,355.24,274.6z"/>
		<path class="st0" d="M384.95,282.57c0.04-0.1-0.11-0.28-0.17-0.43c-0.15,0-0.29,0-0.43,0c0.07,0.29,0.14,0.58,0.21,0.87
			C384.7,282.86,384.88,282.74,384.95,282.57z"/>
		<path class="st0" d="M354.22,286.99c-0.15-0.18-0.35-0.53-0.43-0.5c-0.71,0.23-0.73,0.6-0.06,0.93
			C353.8,287.46,354.05,287.14,354.22,286.99z"/>
		<path class="st0" d="M383,286.59c-0.06,0.13-0.19,0.31-0.16,0.42c0.05,0.18,0.22,0.33,0.34,0.49c0.07-0.3,0.15-0.61,0.22-0.91
			C383.27,286.59,383.14,286.59,383,286.59z"/>
		<path class="st0" d="M300.8,292.92c0.03-0.12-0.26-0.33-0.41-0.5c-0.66,0.25-0.69,0.61-0.06,0.98
			C300.4,293.43,300.75,293.12,300.8,292.92z"/>
		<path class="st0" d="M60.72,481.64c-0.02,0.06-0.03,0.13-0.05,0.19c0.06-0.02,0.12-0.03,0.18-0.06L60.72,481.64z"/>
		<path class="st0" d="M60.67,481.82c-0.33,0.11-0.72,0.18-0.85,0.42c-0.23,0.42,0.13,0.79,0.47,0.52
			C60.51,482.59,60.57,482.18,60.67,481.82z"/>
		<path class="st0" d="M64.38,481.36c0.15-0.13,0.3-0.26,0.45-0.38c-0.14-0.14-0.28-0.28-0.42-0.42c-0.15,0.2-0.3,0.4-0.45,0.6
			C64.1,481.22,64.24,481.29,64.38,481.36z"/>
		<path class="st0" d="M61.78,480.7c-0.01-0.05-0.43-0.12-0.46-0.06c-0.16,0.31-0.28,0.64-0.4,0.97
			C61.4,481.56,61.9,481.52,61.78,480.7z"/>
		<path class="st0" d="M60.91,481.61c-0.06,0.01-0.13,0.01-0.19,0.02l0.13,0.13C60.87,481.71,60.89,481.66,60.91,481.61z"/>
		<path class="st0" d="M187.42,471.95c0.24,0.51,0.55,0.59,0.81,0.24c0.07-0.09,0.01-0.28,0.01-0.43c-0.13-0.06-0.29-0.21-0.39-0.17
			C187.67,471.65,187.4,471.9,187.42,471.95z"/>
		<path class="st0" d="M245.15,469.02c0.06,0.17,0.29,0.46,0.35,0.43c0.5-0.21,0.59-0.51,0.26-0.78c-0.09-0.07-0.27-0.03-0.4-0.04
			C245.28,468.76,245.12,468.93,245.15,469.02z"/>
		<path class="st0" d="M199.12,469.49c0.16,0.01,0.34-0.27,0.51-0.42c-0.15-0.19-0.3-0.37-0.45-0.56c-0.17,0.16-0.35,0.33-0.52,0.49
			C198.81,469.17,198.95,469.47,199.12,469.49z"/>
		<path class="st0" d="M257.33,466.86c0.07-0.01,0.14-0.02,0.22-0.02l-0.15-0.15C257.37,466.75,257.35,466.8,257.33,466.86z"/>
		<path class="st0" d="M256.51,467.8c0.01,0.05,0.41,0.09,0.43,0.04c0.15-0.31,0.26-0.64,0.38-0.97
			C256.84,466.91,256.36,466.99,256.51,467.8z"/>
		<path class="st0" d="M357.39,465.99c0.24,0.54,0.56,0.63,0.84,0.26c0.07-0.09,0.01-0.29,0.01-0.45c-0.12-0.06-0.29-0.23-0.4-0.19
			C357.66,465.67,357.37,465.94,357.39,465.99z"/>
		<path class="st0" d="M352.55,461.85c0.05-0.01,0.11-0.45,0.06-0.48c-0.3-0.17-0.62-0.3-0.94-0.44
			C351.7,461.47,351.76,462,352.55,461.85z"/>
		<path class="st0" d="M351.66,460.93c0-0.07-0.01-0.13-0.02-0.19l-0.12,0.13C351.57,460.88,351.62,460.91,351.66,460.93z"/>
		<path class="st0" d="M558.6,432.85c-0.06,0.13-0.22,0.3-0.18,0.41c0.06,0.18,0.31,0.48,0.36,0.46c0.51-0.24,0.59-0.57,0.25-0.85
			C558.93,432.78,558.75,432.85,558.6,432.85z"/>
		<path class="st0" d="M527.46,424.19c0.23,0.73,0.57,0.75,0.87,0.05c0.04-0.08-0.27-0.33-0.42-0.5
			C527.76,423.89,527.43,424.1,527.46,424.19z"/>
		<path class="st0" d="M566.89,422.94c0.13,0.08,0.26,0.16,0.39,0.23c0.14-0.14,0.4-0.27,0.4-0.41c0.01-0.15-0.23-0.31-0.36-0.46
			C567.18,422.51,567.04,422.73,566.89,422.94z"/>
		<path class="st0" d="M559.07,422.39c-0.1-0.08-0.31-0.03-0.47-0.04c-0.08,0.17-0.26,0.37-0.22,0.49c0.07,0.21,0.36,0.53,0.42,0.5
			C559.36,423.06,559.46,422.7,559.07,422.39z"/>
		<path class="st0" d="M547.06,404.79c0.28,0.08,0.55,0.16,0.83,0.24c0-0.14,0-0.29,0-0.43c-0.13-0.06-0.29-0.21-0.39-0.18
			C547.34,404.48,547.21,404.66,547.06,404.79z"/>
		<path class="st0" d="M542.89,404.77c0.22,0.54,0.52,0.62,0.78,0.25c0.07-0.1,0.01-0.29,0.01-0.45c-0.12-0.07-0.28-0.22-0.37-0.18
			C543.14,404.46,542.87,404.71,542.89,404.77z"/>
		<path class="st0" d="M536.28,403.74c0.16,0.01,0.33-0.26,0.49-0.4c-0.15-0.18-0.29-0.37-0.44-0.55c-0.17,0.16-0.33,0.33-0.5,0.49
			C535.99,403.45,536.13,403.73,536.28,403.74z"/>
		<path class="st0" d="M532.97,403.31c-0.03,0.06,0.27,0.39,0.46,0.47c0.11,0.05,0.32-0.14,0.47-0.22c0-0.17,0.06-0.39-0.01-0.51
			C533.62,402.64,533.27,402.72,532.97,403.31z"/>
		<path class="st0" d="M547.5,401.48c-0.17,0.05-0.31,0.23-0.46,0.36c0.28,0.08,0.56,0.17,0.84,0.25c0.01-0.14,0.02-0.28,0.03-0.42
			C547.77,401.6,547.61,401.44,547.5,401.48z"/>
		<path class="st0" d="M543.38,401.3c-0.15,0.15-0.3,0.3-0.45,0.45c0.21,0.16,0.42,0.32,0.64,0.49c0.07-0.15,0.15-0.3,0.22-0.45
			C543.65,401.62,543.52,401.46,543.38,401.3z"/>
		<path class="st0" d="M491.15,361.22c-0.19,0.05-0.27,0.6-0.39,1c0.42,0,0.83,0,1.25,0C491.98,361.65,491.93,361.03,491.15,361.22z
			"/>
		<path class="st0" d="M512.04,356.98c0.21,0.15,0.42,0.3,0.63,0.45c0.07-0.13,0.14-0.27,0.21-0.4c-0.13-0.15-0.26-0.42-0.4-0.42
			C512.34,356.6,512.19,356.85,512.04,356.98z"/>
		<path class="st0" d="M546.16,344.15c0.16-0.17,0.31-0.34,0.47-0.51c-0.14-0.18-0.28-0.38-0.43-0.57
			c-0.16,0.18-0.43,0.34-0.45,0.54C545.73,343.78,546.01,343.97,546.16,344.15z"/>
		<path class="st0" d="M520.37,343.61c0.28,0.08,0.56,0.16,0.84,0.24c0.01-0.14,0.01-0.28,0.02-0.41c-0.14-0.07-0.3-0.22-0.4-0.19
			C520.65,343.31,520.52,343.48,520.37,343.61z"/>
		<path class="st0" d="M516.62,342.68c0.48-0.26,0.56-0.59,0.23-0.87c-0.08-0.07-0.26-0.01-0.4-0.01c-0.06,0.14-0.2,0.31-0.17,0.42
			C516.34,342.41,516.58,342.71,516.62,342.68z"/>
		<path class="st0" d="M35.34,341.5c0.08-0.01,0.16-0.02,0.24-0.03l-0.16-0.17C35.4,341.37,35.37,341.43,35.34,341.5z"/>
		<path class="st0" d="M34.5,342.4c0,0.04,0.4,0.11,0.43,0.06c0.16-0.31,0.28-0.64,0.41-0.96C34.86,341.55,34.41,341.63,34.5,342.4z
			"/>
		<path class="st0" d="M110.89,313.49c-0.1-0.08-0.28-0.03-0.42-0.04c-0.07,0.14-0.23,0.32-0.19,0.42c0.06,0.18,0.31,0.48,0.36,0.45
			C111.14,314.08,111.23,313.76,110.89,313.49z"/>
	</g>
	<g>
		<path class="st1" d="M205.81,337.56c0.79,2.37-1.3,8.34-6.25,17.91c-5.18,10.14-9.75,14.65-13.69,13.52
			c-2.14-0.56-3.21-2.14-3.21-4.73c0-3.27,1.8-8.56,5.41-15.89c4.73-9.69,7.15-14.7,7.27-15.04c-0.34-2.25,0.45-3.94,2.37-5.07
			c0.11-0.9,0.17-1.86,0.17-2.87c0-6.65-2.7-12.25-8.11-16.82s-12.11-6.9-20.11-7.01c-14.99-0.22-30.73,4.2-47.24,13.27
			c-16.51,9.07-25.77,18.56-27.8,28.48c-0.34,1.58-0.51,3.1-0.51,4.56c0,7.33,3.55,14.59,10.65,21.8
			c4.39,4.51,11.21,9.8,20.45,15.89c18.25,12.06,29.46,19.83,33.63,23.32c11.49,9.35,16.67,17.41,15.55,24.17
			c-1.8,10.59-10.25,19.21-25.35,25.86c-12.62,5.52-25.46,8.28-38.53,8.28c-1.8,0-3.49-0.06-5.07-0.17
			c-12.17-1.13-21.63-3.38-28.39-6.76c-8.23-4.06-14.48-10.36-18.76-18.93c-1.69-3.38-2.54-6.82-2.54-10.31
			c0-4.5,1.12-8.45,3.38-11.83c2.25-3.38,4.45-5.07,6.59-5.07c2.14,0,3.21,1.13,3.21,3.38c0,0.45-0.68,1.86-2.03,4.23
			c-1.35,2.37-1.86,4.9-1.52,7.6c2.25,16.79,15.66,26.59,40.22,29.41c1.69,0.22,3.49,0.34,5.41,0.34c11.72,0,22.98-2.48,33.8-7.44
			c12.39-5.63,18.76-12.51,19.1-20.62c0.22-5.97-4.68-12.56-14.7-19.77c-9.58-6.08-19.16-12.17-28.73-18.25
			c-10.71-7.1-18.42-13.01-23.15-17.75c-9.24-9.13-13.86-18.19-13.86-27.21c0-2.25,0.28-4.5,0.85-6.76
			c3.49-13.74,15.1-25.57,34.81-35.49c17.8-9.01,34.87-13.41,51.21-13.18c11.49,0.11,20.73,3.07,27.72,8.87
			c6.98,5.8,10.48,13.27,10.48,22.39C208.51,328.27,207.61,332.83,205.81,337.56z"/>
		<path class="st1" d="M235.55,458.06c0.34,1.24-0.7,2.67-3.13,4.31c-2.42,1.63-4.93,2.45-7.52,2.45c-5.75,0-8.62-4.17-8.62-12.51
			c0-5.86,2.65-18.48,7.94-37.86c1.35-4.84,2.03-7.55,2.03-8.11c0-0.45-0.11-0.73-0.34-0.85c-0.79-0.45-2.37,0.62-4.73,3.21
			c-3.72,4.17-14.53,18.25-32.45,42.25c-2.37,3.16-5.01,4.73-7.94,4.73c-3.38,0-5.07-1.35-5.07-4.06c0-0.79,0.17-1.91,0.51-3.38
			c5.52-21.07,14.14-45.35,25.86-72.84c9.58-22.65,14.37-35.94,14.37-39.88c0-3.49,1.24-6.19,3.72-8.11
			c0.34-0.22,1.29-1.18,2.87-2.87c0.79-0.9,1.8-1.46,3.04-1.69c3.49-0.79,6.03,0.06,7.6,2.54c0,0.79-1.47,4.51-4.39,11.15
			c-6.31,12.73-15.21,32.28-26.7,58.64c-8.56,22.54-12.84,35.27-12.84,38.19c0,0.45,0.11,0.73,0.34,0.84
			c0.34,0.11,2.76-2.81,7.27-8.79c6.08-8,11.77-14.81,17.07-20.45c4.28-4.5,6.87-7.15,7.77-7.94c3.15-2.7,5.97-4.06,8.45-4.06
			c0.9,0,1.75,0.17,2.54,0.51c2.48,1.01,3.72,3.16,3.72,6.42c0,1.58-0.51,4.62-1.52,9.13c-0.45,2.03-2.48,9.52-6.08,22.48
			c-2.59,8.9-3.89,15.16-3.89,18.76c0,3.49,1.01,5.41,3.04,5.75c0.68,0.11,1.52,0.11,2.54,0c1.24-0.22,1.97-0.34,2.2-0.34
			C234.42,455.69,235.21,456.48,235.55,458.06z"/>
		<path class="st1" d="M311.94,397.9c0,2.14-0.57,4.51-1.69,7.1c-7.21,16.79-10.82,29.46-10.82,38.02c0,5.3,1.46,8.56,4.39,9.8
			c1.35,0.34,3.27,1.24,5.75,2.7c0.34,0.34,0.51,0.73,0.51,1.18c0,1.24-0.51,2.31-1.52,3.21c-1.13,1.24-2.65,1.86-4.56,1.86
			c-1.24,0-2.59-0.34-4.06-1.01c-5.75-2.37-8.62-8.34-8.62-17.92c0-2.14,0.17-4.79,0.51-7.94c-6.31,8.56-12.84,15.44-19.6,20.62
			c-7.44,5.63-14.25,8.45-20.45,8.45c-1.35,0-2.7-0.17-4.06-0.51c-6.87-1.69-10.31-7.88-10.31-18.59c0-10.82,2.87-22.65,8.62-35.49
			c6.08-13.52,12.96-24.51,20.62-32.96c9.13-10.25,18.19-15.38,27.21-15.38c5.75,0,10.08,2.14,13.01,6.42
			c2.59,3.83,3.89,8.73,3.89,14.7c0,4.39-0.68,8.62-2.03,12.68C309.63,395.31,310.7,396.32,311.94,397.9z M299.43,395.02
			c1.01-4.5,1.52-8.67,1.52-12.51c0-8.45-2.59-12.68-7.77-12.68c-5.41,0-11.58,3.69-18.51,11.07c-6.93,7.38-12.93,16.48-18,27.29
			c-6.2,13.07-9.29,25.18-9.29,36.34c0,5.86,1.29,9.41,3.89,10.65c1.01,0.45,2.14,0.68,3.38,0.68c6.87,0,15.55-6.76,26.03-20.28
			c9.69-12.39,15.32-22.42,16.9-30.08c-0.34-3.15-0.4-5.29-0.17-6.42C297.52,398.52,298.19,397.16,299.43,395.02z"/>
		<path class="st1" d="M388.5,457.21c0,1.46-0.71,2.68-2.11,3.63c-1.41,0.96-3.07,1.27-4.99,0.93c-3.72-0.68-11.04-4.23-21.97-10.65
			c-10.25-6.08-18.03-11.26-23.32-15.55c-5.75-1.12-8.62-3.1-8.62-5.92c0-1.35,0.73-2.93,2.2-4.73c2.03-2.48,3.83-3.72,5.41-3.72
			c1.58,0,3.94,1.18,7.1,3.55c6.31,0.57,12.51-0.51,18.59-3.21c7.66-3.27,13.75-8.67,18.25-16.22c3.49-5.86,5.24-10.99,5.24-15.38
			c0-5.75-2.59-8.62-7.77-8.62c-8.9,0-22.14,10.25-39.72,30.76c-4.06,4.73-7.89,10.59-11.49,17.58c-4.06,8.11-6.08,14.48-6.08,19.1
			c0,0.79,0.05,1.52,0.17,2.2c0.34,1.92-0.37,3.55-2.11,4.9c-1.75,1.35-3.58,1.86-5.49,1.52c-2.14-0.45-3.21-2.14-3.21-5.07
			c0-1.58,0.28-3.27,0.84-5.07c9.46-28.17,24.62-67.6,45.46-118.3c1.35-3.38,2.31-5.41,2.87-6.08c1.24-1.69,3.32-2.54,6.25-2.54
			c2.7,0,4.06,1.58,4.06,4.73c0,2.7-0.79,5.52-2.37,8.45c-14.99,28.62-26.08,52.56-33.29,71.83c20.05-22.76,36.22-33.4,48.5-31.94
			c8.34,1.01,12.51,5.97,12.51,14.87c0,6.08-2.26,13.01-6.76,20.79c-3.61,6.31-8.96,11.61-16.05,15.89
			c-6.08,3.72-12.56,6.25-19.44,7.61c5.86,6.54,15.27,12.84,28.22,18.93c0.9-0.45,1.8-0.68,2.7-0.68c1.46,0,2.9,0.68,4.31,2.03
			C387.79,454.17,388.5,455.64,388.5,457.21z"/>
		<path class="st1" d="M462.69,397.9c0,2.14-0.57,4.51-1.69,7.1c-7.21,16.79-10.82,29.46-10.82,38.02c0,5.3,1.46,8.56,4.39,9.8
			c1.35,0.34,3.27,1.24,5.75,2.7c0.34,0.34,0.51,0.73,0.51,1.18c0,1.24-0.51,2.31-1.52,3.21c-1.13,1.24-2.65,1.86-4.56,1.86
			c-1.24,0-2.59-0.34-4.06-1.01c-5.75-2.37-8.62-8.34-8.62-17.92c0-2.14,0.17-4.79,0.51-7.94c-6.31,8.56-12.84,15.44-19.6,20.62
			c-7.44,5.63-14.25,8.45-20.45,8.45c-1.35,0-2.7-0.17-4.06-0.51c-6.87-1.69-10.31-7.88-10.31-18.59c0-10.82,2.87-22.65,8.62-35.49
			c6.08-13.52,12.96-24.51,20.62-32.96c9.13-10.25,18.19-15.38,27.21-15.38c5.75,0,10.08,2.14,13.01,6.42
			c2.59,3.83,3.89,8.73,3.89,14.7c0,4.39-0.68,8.62-2.03,12.68C460.38,395.31,461.45,396.32,462.69,397.9z M450.18,395.02
			c1.01-4.5,1.52-8.67,1.52-12.51c0-8.45-2.59-12.68-7.77-12.68c-5.41,0-11.58,3.69-18.51,11.07c-6.93,7.38-12.93,16.48-18,27.29
			c-6.2,13.07-9.3,25.18-9.3,36.34c0,5.86,1.29,9.41,3.89,10.65c1.01,0.45,2.14,0.68,3.38,0.68c6.87,0,15.55-6.76,26.03-20.28
			c9.69-12.39,15.32-22.42,16.9-30.08c-0.34-3.15-0.4-5.29-0.17-6.42C448.26,398.52,448.94,397.16,450.18,395.02z"/>
		<path class="st1" d="M525.56,385.39c-1.47,4.06-4,6.08-7.61,6.08c-1.58,0-3.1-0.45-4.56-1.35c-1.47-0.9-1.63-3.21-0.51-6.93
			c-5.3,0.45-11.3,3.83-18,10.14c-6.71,6.31-12.42,16.28-17.15,29.91c-3.61,10.59-5.35,18.2-5.24,22.81
			c0.11,4.62-0.57,7.49-2.03,8.62c-1.01,0.68-2.14,1.01-3.38,1.01c-1.92,0-3.63-0.65-5.16-1.94c-1.52-1.29-2.11-2.56-1.77-3.8
			c1.35-5.63,5.18-16.96,11.49-33.97c5.97-16.11,9.41-26.25,10.31-30.42c-0.57-0.45-0.84-1.12-0.84-2.03c0-1.69,0.7-3.52,2.11-5.49
			c1.41-1.97,2.96-3.07,4.65-3.3c1.69-0.34,3.46-0.08,5.32,0.76c1.86,0.85,2.79,2,2.79,3.46c0,0.45-0.11,0.9-0.34,1.35
			c-1.01,1.92-2.2,4.23-3.55,6.93c5.52-7.66,13.01-12.28,22.48-13.86c1.92-0.34,3.6-0.51,5.07-0.51c4.96,0,7.44,1.92,7.44,5.75
			C527.08,380.32,526.57,382.57,525.56,385.39z"/>
	</g>
</g>
<g>
</g>
<g>
</g>
<g>
</g>
<g>
</g>
<g>
</g>
<g>
</g>
</svg>
