<?xml version="1.0" encoding="utf-8"?>
<!-- Generator: Adobe Illustrator 26.0.1, SVG Export Plug-In . SVG Version: 6.00 Build 0)  -->
<svg version="1.1" id="Layer_1" xmlns="http://www.w3.org/2000/svg" xmlns:xlink="http://www.w3.org/1999/xlink" x="0px" y="0px"
	 viewBox="0 0 595.28 841.89" style="enable-background:new 0 0 595.28 841.89;" xml:space="preserve">
<style type="text/css">
	.st0{fill:#1E2022;}
	.st1{fill:#F1F5F9;}
</style>
<g>
	<path class="st0" d="M321.42,419.04C321.42,419.04,321.42,419.04,321.42,419.04c-0.03,0.02-0.04,0.03-0.06,0.05L321.42,419.04z"/>
	<path class="st0" d="M417.61,402.23c-0.02,0.01-0.05,0.02-0.07,0.03c0,0.01,0,0.02,0,0.03L417.61,402.23z"/>
	<path class="st0" d="M272.98,421.59c0.01-0.02,0.02-0.04,0.03-0.06c-0.04,0-0.07,0-0.11,0L272.98,421.59z"/>
	<path class="st0" d="M405.26,379.18c-0.84-0.07-0.66-0.65-0.7-1.11c-0.05-0.54-0.64-0.83-0.92-0.61c-0.96,0.73-1.7-0.22-2.57-0.1
		c-1.79,0.24-3.41-0.42-5.05-0.88c-0.58-0.16-0.72-0.23-0.88,0.34c-0.16,0.6-0.71,0.98-1.4,1.16c-0.02,0.27-0.02,0.55-0.1,0.82
		c-0.03,0.1-0.26,0.17-0.41,0.22c-0.03,0.01-0.17-0.13-0.18-0.21c-0.05-0.27-0.07-0.54-0.09-0.8c-0.34-0.03-0.72,0-1-0.12
		c-0.72-0.31-1.11-1.2-2.06-1.09c-0.95,0.11-1.4-0.78-2.3-0.69c-0.51,0.05-0.88-0.34-1.29-0.4c-1.15-0.17-1.24-1.06-1.76-1.66
		c-0.05-0.05-0.05-0.21-0.03-0.22c0.21-0.07,0.54-0.23,0.63-0.16c1.03,0.77,1.78,0.52,2.72-0.25c0.73-0.6,1.86-0.81,2.75-1.29
		c0.78-0.41,1.51-0.62,2.3-0.12c0.34,0.22,0.57,0.15,0.91,0.01c1.06-0.44,2.38-0.09,3.38-0.82c0.21-0.15,0.8-0.16,1.04-0.01
		c1.53,0.92,3.24,0.6,4.87,0.51c1.13-0.07,2.24-0.5,3.35-0.78c0.03-0.01,0.06-0.15,0.03-0.19c-0.06-0.08-0.17-0.2-0.26-0.2
		c-1.28-0.03-2.3-0.18-1.1-1.53c0.02-0.03-0.06-0.18-0.11-0.19c-1.4-0.2-2.82-0.37-4.15,0.19c-0.61,0.26-0.58-0.13-0.62-0.37
		c-0.06-0.37-0.32-0.58-0.68-0.58c-0.46,0-0.99,0-1.36,0.19c-0.94,0.48-1.47-0.24-2.12-0.5c-0.22-0.09-0.23-0.76-0.16-1.14
		c0.05-0.27,0.38-0.46,0.8-0.47c0.58-0.01,1.17-0.07,1.74-0.17c0.12-0.02,0.29-0.36,0.24-0.5c-0.26-0.76-0.98-1.25-1.82-1.16
		c-0.44,0.05-0.85,0.4-1.28,0.42c-0.41,0.01-0.83-0.3-1.26-0.35c-0.36-0.04-0.58,0.2-0.66,0.51c-0.23,0-0.46,0-0.68,0
		c-0.08-0.64-0.84-0.53-1.25-0.8c-1.06-0.68-1.98-0.55-2.81,0.29c-0.33,0.33-0.64,0.48-1.18,0.18c-0.36-0.2-1-0.07-1.32-0.3
		c-1.26-0.9-3-0.32-4.31-1.16c-0.55-0.35-1.31,0.12-1.92,0.39c-0.68-0.63-1.59-0.46-2.37-0.38c-0.89,0.09-1.67-0.93-2.57-0.15
		c-0.83-0.92-1.6-0.36-2.44,0.02c-0.35,0.16-0.69-0.14-0.75-0.45c-0.09-0.5-0.06-1.03-0.14-1.53c-0.05-0.28-0.28-0.35-0.48-0.2
		c-0.67,0.52-1.21,0.29-1.9-0.06c-0.99-0.5-2.04-1.01-3.31-0.8c-0.17,0.03-0.4-0.17-0.6-0.27c0.27-0.14,0.53-0.29,0.81-0.42
		c0.36-0.16,0.51-0.43,0.43-0.74c-0.12-0.45-0.92-1.04-1.19-0.86c-1.06,0.7-1.9,0.46-2.88-0.17c-0.39-0.25-1.17-0.03-1.76-0.1
		c-0.71-0.09-0.46-0.92-1.04-1.11c-0.31-0.1-0.67-0.08-1.02-0.1c-0.25-0.8-1.06-0.51-1.68-0.59c-0.87,0.9-1.59,0.02-2.37-0.16
		c-0.06-0.01-0.13-0.16-0.1-0.2c0.05-0.08,0.16-0.18,0.26-0.2c0.34-0.05,0.7-0.03,1.04-0.1c0.21-0.04,0.46-0.15,0.56-0.29
		c0.1-0.15,0.1-0.41,0.03-0.58c-0.21-0.47-0.8-0.81-1.26-0.69c-0.31,0.09-0.52,0.28-0.82-0.07c-0.8-0.95-0.96-1.04-1.64-0.29
		c-0.73,0.8-1.31,0.26-1.98,0.1c-0.07,0.15-0.12,0.36-0.24,0.39c-0.37,0.1-0.43-0.17-0.5-0.4c-0.7,0.01-1.35-0.07-1.82-0.62
		c-0.18-0.21-0.51-0.34-0.77-0.5c-0.78,1-2.27,0.06-3.12,0.85c-0.06,0.05-0.06,0.15-0.08,0.24c-0.58,0.03-1.15,0.04-1.72,0.1
		c-0.35,0.04-0.39,0.23-0.15,0.43c0.46,0.39,0.2,0.66-0.17,0.97c-0.5,0.43-0.8,0.14-1.11-0.16c-0.4-0.39-0.79-0.78-1.47-0.75
		c-1.02,0.05-1.99-0.42-2.44-0.98c-0.47-0.6-0.83-0.92-1.63-0.84c-0.81,0.08-1.2-0.15-1.56-0.87c-0.48-0.95-0.84-0.93-2.27-0.53
		c-1.27,0.36-1.58,0.22-1.96-0.9c-0.06-0.19-0.07-0.4-0.16-0.58c-0.45-0.84-1.64-0.76-2.31-1.35c-0.02-0.02-0.39,0.18-0.52,0.33
		c-0.21,0.23-0.43,0.49-0.53,0.77c-0.13,0.37,0.17,0.9-0.36,1.11c-0.4,0.16-0.91,0.12-1.37,0.18c-1.67,0.2-3.22-0.33-4.79-0.65
		c0.07-0.18,0.12-0.36,0.22-0.53c0.5-0.84,0.42-1.47-0.44-1.71c-0.51-0.14-1.11,0.33-1.76-0.16c-0.5-0.38-1.26-0.53-1.93-0.68
		c-0.45-0.1-0.95-0.01-1.43,0.02c-0.09,0.01-0.2,0.12-0.26,0.2c-0.02,0.04,0.05,0.18,0.11,0.19c0.71,0.19,1.29,0.54,1.67,1.08
		c0.11,0.15,0.15,0.42,0.08,0.58c-0.14,0.33-0.61,0.48-0.87,0.34c-1.21-0.66-2.36-0.88-3.65-0.11c-0.33,0.2-1.14,0.27-1.33,0.09
		c-1.1-1.04-2.92-0.04-4.01-1.13c-0.17-0.18-0.9,0.02-1.36,0.1c-0.22,0.04-0.39,0.3-0.61,0.32c-1.78,0.17-3.56,0.36-5.32-0.09
		c-0.45-0.11-0.89-0.27-1.35-0.32c-1.53-0.16-2.07,0.34-1.47,1.56c0.34,0.68,0.3,0.85-0.5,0.94c-0.35,0.04-0.35,0.21-0.17,0.43
		c0.15,0.19,0.61,0.51,0.01,0.66c-0.89,0.22-1.83-0.04-2.73,0.52c-1.04,0.65-2.3,1.04-3.69,0.85c-0.7-0.09-1.41-0.05-2.04,0.39
		c-0.21,0.14-0.75,0.16-0.96,0.02c-0.67-0.43-1.22-0.47-1.94-0.05c-0.64,0.37-1.36,0.27-2-0.14c-0.33-0.21-3.22-0.81-3.71-0.86
		c-1.49-0.14-2.75,0.53-4.08,0.88c-0.61,0.16-1.05,0.34-1.63-0.01c-0.25-0.15-0.82-0.26-0.96-0.14c-0.81,0.67-2.55,0.09-2.78,1.52
		c0,0.02-0.22,0.05-0.26,0.01c-0.74-0.72-1.24,0.25-1.9,0.21c-0.83-0.06-1.67-0.04-2.36,0.52c-0.22,0.18-0.64,0.11-0.97-0.12
		c-0.96-0.66-1.93-0.47-3-0.1c-1.63,0.57-3.28,1.12-5.12,0.92c-0.82-0.09-1.7-0.08-2.36,0.51c-1.98,0.01-3.99,0.59-5.9-0.4
		c-0.58-0.3-1.34-0.12-2.03-0.45c-0.49-0.23-1.18,0.44-1.94,0.39c-0.4-0.03-0.81,0.35-1.24,0.51c-0.41,0.14-0.73-0.12-0.86-0.68
		c-0.05-0.2,0.01-0.43-0.08-0.61c-0.06-0.13-0.39-0.3-0.43-0.27c-0.84,0.61-2.1,0.27-2.91,1.07c-0.51,0.5-1.34,0.89-2.11,1.05
		c-0.97,0.19-1.8,0.43-2.47,1.11c-0.44,0.45-1.2,0.45-1.66,0.18c-0.87-0.51-1.79-0.53-2.75-0.53c-1.18,0-2.33,0.06-3.45-0.53
		c-0.53-0.28-1.39-0.14-1.65,0.72c-0.12,0.41-0.69,0.55-1.17,0.27c-1.28-0.77-2.43-0.39-3.67,0.14c-0.68,0.29-1.14,0.73-1.7,1.1
		c-0.72,0.48-0.71,1.01-0.13,1.57c0.06,0.06,0.08,0.23,0.07,0.23c-0.21,0.07-0.49,0.22-0.65,0.16c-0.74-0.29-1.4-0.68-2.32-0.56
		c-0.68,0.09-1.44,0.1-2.05-0.36c-0.92-0.69-1.41,0.52-2.25,0.4c-0.49-0.07-0.88-0.22-1.32-0.37c-1.13-0.4-2.29-0.58-3.2,0.45
		c-0.32,0.36-0.62,0.33-1.17,0.19c-1.11-0.3-2.23-1.05-3.52-0.33c-0.23,0.13-0.79,0.07-1.02-0.09c-0.57-0.4-0.94-0.14-1.51,0.02
		c-0.76,0.21-1.19,0.64-1.73,1.04c-0.48,0.35-0.63,0.25-0.75-0.44c-0.02-0.1,0.01-0.21-0.01-0.31c-0.13-0.69-0.27-0.79-0.75-0.43
		c-1.71,1.24-3.42,2.18-5.74,0.96c-0.55-0.29-1.37-0.13-1.55,0.78c-0.1,0.5-0.52,0.03-0.8-0.03c-0.49-0.11-0.99,0.62-1.51,0
		c-0.02-0.02-0.39,0.1-0.53,0.22c-0.62,0.54-1.32,0.95-2.23,0.81c-0.97-0.15-1.78,0.48-2.68,0.34c-0.43-0.06-0.82-0.41-1.3-0.15
		c-1.2,0.65-2.67,0.89-3.71,1.8c-0.35,0.3-0.75,0.47-1.27,0.49c-1.62,0.05-2.96,0.68-4.11,1.62c-0.31,0.25-0.68,0.26-0.98,0.11
		c-0.42-0.21-0.71-0.4-1.22-0.07c-1.08,0.68-2.32,1.01-3.69,0.89c-0.67-0.06-1.15,0.11-1.23,0.79c-0.03,0.26-0.34,0.34-0.51,0.17
		c-0.59-0.58-1.48,0.55-2.11-0.31c-0.14-0.19-0.83,0.03-0.9,0.55c0.65,0.06,1.12,0.49,1.17,0.9c0.06,0.54-0.67,0.31-1.06,0.33
		c-0.69,0.03-1.08,0.43-1.42,0.85c-0.34,0.41-0.48,0.96-0.89,1.29c-0.49,0.41-1.2,0.62-1.76,0.98c-0.66,0.42-0.19,1.22-0.66,1.71
		c-0.38,0.4-0.9,0.72-1.17,1.16c-0.25,0.43-0.05,0.96-0.33,1.46c-0.44,0.81-1.36,1.51-1.2,2.49c0.18,1.09-0.75,1.95-0.72,2.95
		c0.04,1.17-0.32,2.25-0.97,3.2c-0.6,0.89-0.12,1.91-0.6,2.67c-0.52,0.82-1.91,1.02-2.22,2.17c-0.2,0.77-0.39,0.73,0.47,0.91
		c1.54,0.31,1.88,0.64,1.84,1.79c-0.01,0.31,0.1,0.71-0.08,0.91c-0.61,0.66-0.05,1.45-0.48,2.19c-0.39,0.68-0.27,1.64-0.14,2.45
		c0.15,0.9-0.69,1.51-0.68,2.36c0.02,1.87-0.04,3.73-0.06,5.6c0,0.62,0.15,1.17,0.6,1.72c0.42,0.52,0.29,1.18-0.25,1.69
		c-0.48,0.46-1,0.9-1.48,1.36c-0.27,0.26-0.27,0.58-0.03,0.84c0.66,0.73,1.54,1.17,2.61,1.14c0.37-0.01,0.67-0.1,0.74,0.24
		c0.09,0.4,0.08,0.83,0.06,1.24c-0.01,0.36,0.18,0.63,0.55,0.69c0.78,0.11,0.89,0.52,0.88,1.1c-0.02,1.01-0.24,1.85-1.62,2.08
		c-0.46,0.08-0.46,0.38-0.16,0.62c0.52,0.42,1.07,0.81,1.63,1.19c1.59,1.06,3.38,1.83,5.22,2.49c0.75,0.27,0.47,0.45,0.25,0.85
		c-0.07,0.13,0.24,0.59,0.47,0.66c1.2,0.39,2.35,0.98,3.67,0.97c0.98-0.01,1.86,0.09,2.68,0.62c0.45,0.3,1.06,0.44,1.61,0.6
		c0.21,0.06,0.56,0.1,0.7,0c0.69-0.47,1.47-0.09,2.19-0.25c1.85-0.41,3.52-1.14,5.18-1.92c1.26-0.59,2.52-1.12,4.06-0.92
		c0.94,0.12,1.89,0.13,2.76-0.45c0.29-0.19,1.05-0.17,1.35,0.03c0.98,0.64,2.07,0.51,3.11,0.45c1.12-0.06,1.92,0.23,2.27,1.12
		c0.41,1.05,1.17,1.48,2.42,1.41c0.19-0.01,0.4,0.21,0.6,0.32c0.67,0.34,1.29,0.27,2.01,0c1.27-0.49,2.59-0.85,3.88-1.31
		c1.15-0.41,2.73-0.99,3.6,0.68c0.24,0.46,0.75-0.48,1.1-0.12c0.84,0.89,1.88,1.14,3.18,1.05c1.32-0.09,2.65-0.04,3.97-0.06
		c1.96-0.03,2.61-0.17,4.21-1.26c0.62-0.42,1.2-0.6,1.95-0.63c0.31-0.01,0.58-0.38,0.91-0.44c0.37-0.06,0.64,0.61,1.16,0.17
		c0.38-0.33,0.61-0.09,0.66,0.23c0.1,0.55,0.33,0.7,0.88,0.33c0.17-0.12,0.4-0.18,0.6-0.26c0.07-0.34,0.3-0.55,0.7-0.62
		c-0.03-0.49-0.39-0.64-0.9-0.64c-2.32,0-4.65-0.01-6.97-0.01c0.04-0.47,0.5-0.46,0.9-0.64c0.93-0.41,1.83-0.87,2.85-1.13
		c0.62,0.46,1.16,0.23,1.84,0c0.63-0.21,1.42-0.06,2.14-0.06c0.59,0,1.17,0.03,1.68-0.36c0.5-0.38,1.13,0.51,1.77-0.14
		c0.3-0.3,1.16-0.15,1.63-0.39c0.54-0.27,0.95,0.17,1.21,0.09c0.54-0.16,1-0.47,1.65-0.44c0.96,0.05,1.92,0,2.88-0.01
		c0.84,0,1.68,0,2.52-0.01c0.96-0.01,1.95-0.15,2.88-0.01c0.94,0.14,1.64-0.94,2.3-0.49c1.03,0.7,1.71-0.27,2.61-0.12
		c0.92,0.15,1.92,0.04,2.87-0.03c1.05-0.08,2.14,0.25,3.13-0.37c0.96-0.6,1.77,0.15,2.65,0.34c0.11,0.02,0.28,0.03,0.34-0.03
		c0.89-0.78,2.03-0.6,3.07-0.52c1.24,0.1,2.18-0.69,3.43-0.62c2.15,0.11,4.33-0.03,6.49-0.01c1.05,0.01,2.17-0.21,3.05,0.57
		c0.1,0.09,0.56,0.04,0.66-0.07c0.67-0.78,1.19,0.09,1.78,0.08c0.22-0.84,1.07-0.51,1.67-0.59c0.46-0.06,0.94-0.02,1.17,0.44
		c0.15,0.3,0.02,0.88,0.78,0.48c0.59-0.31,1.2-0.59,1.84-0.82c0.29-0.11,0.73-0.18,0.92,0.18c0.14,0.27,0.17,0.56-0.09,0.84
		c-0.19,0.21-0.29,0.47-0.42,0.71c1.05,0.01,2.23-0.21,3.08,0.15c1.64,0.7,3.17,0.7,4.76,0.18c0.4-0.13,0.59-0.11,0.85,0.1
		c0.65,0.53,1.69,0,2.32,0.66c0.24,0.25,0.66,0.19,0.98,0.01c0.51-0.29,1-0.62,1.59-0.17c0.72,0.55,1.33-0.63,1.86-0.15
		c0.64,0.57,1.31-0.17,1.84,0.2c0.79,0.55,1.29-0.07,1.93-0.25c0.41-0.11,0.97-0.03,1.38,0.12c0.46,0.18,0.76,0.24,1.27,0.04
		c0.4-0.16,1.01,0.47,1.5-0.08c0.66,0.53,1.24,0.08,1.86-0.1c1.03-0.29,2.01,0.45,3.01,0.18c0.54-0.14,1,0.51,1.57-0.02
		c0.31-0.3,0.69,0.55,1.19,0.13c0.48-0.4,1.11-0.32,1.7-0.31c0.84,0.02,1.63,0.06,2.34-0.51c0.25-0.2,1.05-0.22,1.32-0.03
		c0.85,0.59,1.78,0.5,2.73,0.49c0.96-0.01,1.93,0.06,2.88,0c1.04-0.07,2.18,0.29,3.09-0.46c0.82,0.49,1.75,0.51,2.69,0.5
		c0.35,0,0.72-0.06,1.03-0.18c0.15-0.06,0.2-0.3,0.29-0.48c-0.84-0.28-1.32-0.93-1.92-1.46c-0.4-0.35-0.1-0.82,0.6-0.99
		c0.21-0.05,0.44-0.05,0.66-0.07c0.7-0.75,0.97-0.78,1.37-0.06c0.24,0.43,0.34,0.77,0.86,0.29c0.71-0.66,1.36-1.15,2.41-0.37
		c0.29,0.21,1.01,0.25,1.36,0.09c1.94-0.89,3.86-0.79,5.81-0.09c0.35,0.12,0.7,0.19,0.99-0.04c0.59-0.49,1.32-0.41,2.04-0.41
		c2.65,0,5.3-0.01,7.95,0.01c0.53,0,0.87-0.33,1.29-0.42c0.35-0.07,0.81,0.24,1.22,0.38c0.41,0.14,1.12,0.48,1.18,0.4
		c0.6-0.73,1.62,0.59,2.1-0.35c1.55,0.03,3.04-1.38,4.67-0.11c0.18,0.14,0.86,0.11,1.01-0.05c0.81-0.85,1.64,0.46,2.17,0.02
		c1.02-0.83,1.7,0.43,2.58,0.16c0.15-0.04,0.42,0.14,0.6,0.26c0.25,0.16,0.2,1.09-0.13,1.43c-0.35,0.36-0.7,0.9-1.38,0.31
		c-0.17-0.15-0.39-0.04-0.44,0.23c-0.06,0.32,0.06,0.69,0.42,0.76c2.09,0.36,4.31-0.52,6.35,0.49c0.03,0.02,0.34-0.23,0.36-0.37
		c0.09-0.55,0.35-0.75,0.83-0.29c0.6,0.57,1.25,0.92,2.19,0.84c1.28-0.11,2.64,0.34,3.83-0.43c0.03-0.02,0.37,0.2,0.39,0.32
		c0.08,0.53,0.31,0.74,0.86,0.36c0.44-0.3,0.88-0.32,1.27,0.01c0.51,0.44,0.82-0.16,1.16-0.13c0.42,0.04,0.71,0.47,1.26,0.49
		c1.04,0.04,2.17-0.25,3.09,0.51c0.14,0.11,0.7-0.01,0.95-0.16c1.44-0.87,3.05-1.03,4.75-1.01c0.82,0.01,1.78,0.3,2.44-0.22
		c1.05-0.83,1.74,0.34,2.62,0.21c0.52-0.87,1.47,0.26,2.14-0.34c0.25-0.23,1.07-0.33,1.33-0.16c0.92,0.61,1.62,0.4,2.6,0.04
		c0.82-0.3,1.97-0.27,2.84-0.03c0.94,0.26,1.72,0.13,2.61,0.05c0.44-0.04,0.89,0.45,1.53,0.03c0.59-0.39,1.05,0.27,1.59,0.39
		c0.73,0.17,1.2-0.69,1.99-0.46c0.11,0.03,0.21,0.11,0.3,0.17c0.4,0.25,0.85,0.48,1.3,0.18c0.96-0.66,2.08-0.33,3.12-0.45
		c0.71-0.08,1.45,0.06,2.16,0.01c0.57-0.04,0.82,0.77,1.54,0.3c0.56-0.36,1.22-0.63,1.87-0.86c0.31-0.11,0.71-0.03,1.07-0.03
		c0.96-0.01,1.93-0.06,2.89-0.01c1.05,0.06,1.73-0.59,2.61-0.87c0.43-0.14,0.08-0.03-0.09-0.17c-0.64-0.53,0.22-0.92,0.06-1.26
		c-0.54-1.13-1.06-2.37-2.97-2.12c-0.22,0.03-0.47-0.03-0.69-0.08c-0.11-0.02-0.2-0.12-0.29-0.18c0.08-0.06,0.16-0.17,0.25-0.18
		c1.07-0.06,2.19,0.03,3.2-0.2c1.13-0.26,2.16-0.99,3.28-0.03c0.52-0.55,1.23-0.5,1.97-0.51c1.19-0.02,2.38-0.13,3.41,0.54
		c1.11-0.56,2.19-1.17,3.33-1.67c0.43-0.19,0.85-0.04,1.08,0.48c0.21,0.47,1.53,0.81,1.72,0.52c0.5-0.77,1.55-1.46,1.13-2.42
		c-0.3-0.67-0.34-1.2-0.07-1.84c0.13-0.32-0.2-0.58-0.63-0.53c-0.2,0.02-0.5,0.12-0.56,0.25c-0.12,0.28-0.08,0.6-0.17,0.9
		c-0.05,0.18-0.21,0.33-0.32,0.49c-0.19-0.12-0.43-0.21-0.57-0.37c-0.21-0.23-0.44-0.49-0.52-0.77c-0.22-0.73-0.57-0.35-0.96-0.14
		c-0.18,0.1-0.53,0.2-0.65,0.12c-0.93-0.59-2-0.59-3.06-0.55c-0.73,0.03-1.43,0.04-2.05-0.4c-0.09-0.06-0.41,0.04-0.57,0.13
		c-0.81,0.49-1.5,0.15-1.78-0.43c-0.58-1.17-1.63-1.65-2.95-1.78c-0.85-0.08-1.59-0.43-2.36-0.55c-0.86-0.13-1.51-0.64-2.33-0.69
		c-0.96-0.05-1.89-0.1-2.7-0.64c-0.15-0.1-0.47,0-0.71-0.02c-0.64-0.07-1.04,0.72-1.92,0.19c-0.59-0.35-1.62-0.16-2.45-0.2
		c-0.6-0.03-1.16,0.03-1.69,0.38c-0.46,0.3-1.02,0.59-1.57,0.64c-0.52,0.04-1.06-0.33-1.61-0.37c-0.96-0.07-1.95,0.1-2.88-0.05
		c-1.03-0.17-1.85,0.69-3.01,0.17c-0.77-0.35-1.88-0.14-2.84-0.17c-0.24-0.01-0.5,0.07-0.72,0.02c-0.63-0.14-1.04,0.68-1.59,0.34
		c-0.65-0.41-1.41-0.18-2.06-0.46c-0.36-0.15-2.04-0.08-2.73-0.02c-0.33,0.03-0.85,0.06-0.98-0.1c-0.85-1-1.6-0.86-2.48-0.03
		c-0.44,0.41-1.13,0.35-1.67,0.1c-0.45-0.2-0.72-0.21-1.23-0.05c-0.76,0.23-1.63,0.19-2.46,0.2c-0.73,0.01-1.44-0.84-2.18-0.01
		c-0.84-0.01-1.7,0.06-2.52-0.04c-0.56-0.07-1.09-0.37-1.63-0.58c-0.25-0.1-0.48-0.65-0.32-0.79c0.16-0.14,0.35-0.36,0.52-0.36
		c1.05,0.03,2.17-0.31,3.13,0.34c0.45,0.3,0.9,0.23,1.3-0.05c0.4-0.28,0.85-0.34,1.34-0.31c1.16,0.07,2.41-0.33,3.44,0.5
		c0.12,0.09,0.52,0.06,0.67-0.04c0.95-0.65,2.04-0.47,3.11-0.48c1.08-0.01,2.16-0.04,3.24-0.06c1.1-0.82,2.16-0.47,3.3-0.01
		c0.5,0.2,1.12,0.24,1.69,0.4c0.43,0.12,1.02-0.31,1.56-0.35c2.36-0.17,4.78,0.41,7.08-0.5c0.41-0.16,0.68,0.55,1.26,0.27
		c0.4-0.19,0.88-0.29,1.34-0.35c0.39-0.05,0.79-0.15,0.83-0.45c0.18-1.14,1.18-1.05,1.85-0.72c1.06,0.52,1.95,0.72,2.92-0.02
		c0.91,0.84,1.01,0.11,1.26-0.45c0.05-0.12,0.31-0.18,0.51-0.26c-0.01-0.34-0.21-0.62-0.58-0.55c-0.44,0.08-0.82,0.39-1.26,0.52
		c-0.67,0.2-1.07-0.32-1.59-0.52c-0.61-0.23-0.89,0.7-1.55,0.26c-0.26-0.18-0.63-0.3-0.96-0.33c-0.47-0.04-0.96,0.04-1.44,0.05
		c-0.43,0.01-0.65,0.72-1.19,0.27c-0.32-0.27-0.78-0.46-0.76-0.93c0.71-0.3,1.46-0.56,2.12-0.93c0.68-0.38,1.46-0.44,2.06-0.23
		c1.26,0.44,2.43,0.73,3.67,0c0.08-0.05,0.27-0.04,0.35,0c1.52,0.96,3.26,0.36,4.89,0.52c1.15,0.12,2.06-0.36,3.05-0.69
		c0.38-0.13,0.48-0.45,0.38-0.75c-0.05-0.16-0.28-0.34-0.47-0.39c-0.56-0.12-1.18-0.01-1.66-0.44c-1.32-1.21-3-1.52-4.86-1.44
		c-1.2,0.05-2.41,0.07-3.6-0.02c-1.16-0.08-2.41,0.26-3.47-0.49c-0.16-0.11-0.64,0.1-0.96,0.18c-0.33,0.08-0.76,0.34-0.96,0.25
		c-0.74-0.35-1.52-0.51-2.33-0.62c-0.35-0.05-0.38-0.24-0.12-0.44c0.09-0.07,0.15-0.16,0.23-0.24c0.45-0.42,0.99-0.67,0.41-1.47
		c-0.44-0.61-0.75-0.94-1.57-0.91c-0.2,0.01-0.41-0.16-0.62-0.25c0.27-0.13,0.54-0.26,0.82-0.38c0.3-0.12,0.34-0.25,0.22-0.45
		c-0.37-0.61-1.11-0.71-1.71-1.01c-0.14-0.07-0.19-0.36-0.17-0.54c0.03-0.26,0.27-0.37,0.44-0.24c1.05,0.79,2.48-0.03,3.41,0.49
		c1.24,0.69,2.21,0.43,3.3-0.03c0.1-0.04,0.29-0.05,0.34,0c0.88,0.78,2.15,0.27,3.04,0.64c1.88,0.79,4,0.17,5.83,0.97
		c0.81-0.68,1.44,0.45,2.28,0.17c0.48-0.16,0.84-0.3,0.87-0.77c0.03-0.44-0.07-0.83-0.45-1.12c-0.44-0.35,0.04-0.52,0.17-0.75
		c0.12-0.2,0.07-0.41-0.23-0.41c-0.32,0-0.67,0.14-0.96,0.29c-0.26,0.14-0.43,0.21-0.57,0.04c-0.06-0.08-0.11-0.18-0.12-0.27
		c-0.06-0.36,0.18-0.57,0.54-0.66c0.22-0.06,0.48,0,0.72-0.03c1.63-0.19,3.35,0.35,4.91-0.52c0.21-0.11,0.66,0.09,0.99,0.16
		c0.45,0.09,0.9,0.28,1.36,0.29c3.13,0.04,6.25,0.03,9.38,0.04c0.12,0,0.28,0.02,0.35-0.03c0.13-0.1,0.25-0.24,0.31-0.39
		c0.02-0.06-0.14-0.16-0.19-0.25c-0.45-0.79-1.21,0.09-1.77-0.25c-0.38-0.23-0.96-0.29-1.24-0.57c-0.57-0.57-1.05,0.3-1.52,0
		c-1.44-0.93-3.39,0.22-4.78-0.88c-0.03-0.03-0.2,0.05-0.29,0.1c-1.18,0.8-1.92-0.32-2.88-0.49c0-0.95-1-1.13-1.67-1.32
		c-1.09-0.31-2.11-0.84-3.28-0.9c-0.34-0.02-0.64-0.06-0.81-0.35c0.21-0.08,0.42-0.22,0.63-0.23c1.32-0.04,2.64-0.03,3.96-0.08
		c0.33-0.01,0.76-0.13,0.93-0.33c0.17-0.21,0.12-0.55,0.14-0.85c0.57-0.03,1.15-0.04,1.71-0.12c0.15-0.02,0.32-0.29,0.35-0.46
		c0.03-0.17-0.1-0.5-0.18-0.51c-1.28-0.07-2.34-0.91-3.67-0.81c-0.71,0.05-1.44-0.03-2.15,0.03c-0.85,0.07-1.62-0.03-2.29-0.5
		c-0.55,0.48-1.23,0.56-1.98,0.47c-1.73-0.19-3.57,0.45-5.21-0.5c-0.04-0.02-0.19,0.11-0.28,0.17c-0.64,0.41-1.43,0.5-1.99,0.11
		c-0.81-0.55-1.31,0.43-1.92,0.15c-0.62-0.29-1.2-0.58-1.92-0.58c-0.09-0.44,0.11-1-0.62-1.17
		C405.85,377.79,405.46,378.09,405.26,379.18z M403.46,370.01c0.05-0.02,0.13,0.05,0.2,0.08c0,0.06,0.03,0.14-0.01,0.18
		c-0.14,0.15-0.3,0.12-0.42-0.1C403.23,370.14,403.37,370.04,403.46,370.01z M393.74,364.87c0.01,0.02,0.02,0.05,0.03,0.08
		c0.17,0.04,0.36,0.07,0.44,0.16c0.13,0.16-0.04,0.31-0.23,0.21c-0.11-0.06-0.15-0.23-0.21-0.37c-0.03-0.01-0.06-0.01-0.09-0.02
		L393.74,364.87z M392.46,365.14c0.16-0.07,0.32-0.13,0.49-0.19c0-0.03,0.01-0.06,0.01-0.09l0.07,0.06
		c-0.03,0.01-0.05,0.02-0.08,0.03c-0.02,0.23-0.04,0.45-0.46,0.39C392.46,365.34,392.43,365.16,392.46,365.14z M392.4,366.82
		c0.15,0.01,0.28,0.21,0.42,0.33c-0.22,0.06-0.43,0.17-0.64,0.16c-0.14-0.01-0.27-0.2-0.4-0.3
		C391.98,366.94,392.2,366.81,392.4,366.82z M387.79,366.17c0.33-0.05,0.69-0.04,1.02,0.01c0.16,0.03,0.28,0.21,0.41,0.32
		c-0.09,0.06-0.17,0.15-0.27,0.18c-0.21,0.05-0.44,0.06-0.66,0.08c-0.22-0.03-0.44-0.04-0.66-0.09c-0.1-0.02-0.18-0.12-0.27-0.18
		C387.5,366.38,387.63,366.19,387.79,366.17z M159.83,371.57c-0.1-0.07-0.2-0.13-0.3-0.2c0.07-0.06,0.15-0.12,0.22-0.17
		c0.07,0.06,0.13,0.13,0.2,0.2C159.91,371.45,159.87,371.51,159.83,371.57z M194.44,362.91c-0.04,0-0.08-0.03-0.12-0.07
		c-0.04-0.04-0.08-0.09-0.12-0.12c0.05-0.03,0.09-0.08,0.14-0.12c0.05-0.04,0.09-0.07,0.14-0.06c0.09,0.01,0.16,0.14,0.24,0.21
		C194.63,362.81,194.53,362.91,194.44,362.91z M206.81,424.55c-0.07-0.03-0.14-0.05-0.2-0.08c0.07-0.09,0.15-0.18,0.22-0.26
		c0.07,0.06,0.14,0.12,0.21,0.18C206.96,424.44,206.88,424.49,206.81,424.55z M210.78,424.7c-0.03,0.01-0.06,0.02-0.1,0.03
		c-0.05,0.15-0.09,0.32-0.21,0.4c-0.18,0.11-0.36-0.04-0.24-0.22c0.07-0.1,0.27-0.13,0.45-0.18c0.01-0.03,0.02-0.06,0.03-0.08
		L210.78,424.7z M275.35,420.91c-0.22,0.06-0.42,0.02-0.58-0.08c-0.16-0.1-0.28-0.27-0.33-0.48c0.07-0.17,0.15-0.34,0.22-0.5
		c0.32,0.23,0.65,0.45,0.95,0.7C275.64,420.57,275.47,420.87,275.35,420.91z M281.29,420.79c-0.6,0.32-1.54,0.15-1.78-0.35
		c-0.07-0.14,0.1-0.36,0.17-0.6c0.6,0.25,1.19,0.5,1.78,0.75C281.41,420.66,281.37,420.75,281.29,420.79z M296.92,420
		c-0.01-0.04,0.15-0.13,0.23-0.19c0.08,0.07,0.25,0.17,0.24,0.2C297.23,420.32,297.05,420.31,296.92,420z M301.49,349.24
		c-0.03,0.01-0.17-0.12-0.21-0.2c-0.01-0.02,0.01-0.05,0.03-0.09c0.03-0.03,0.06-0.07,0.08-0.1c0.04,0,0.08,0,0.13,0
		c0.04,0,0.08,0,0.11,0.02C301.83,348.99,301.78,349.14,301.49,349.24z M306.55,419.61c-0.03,0.01-0.15-0.11-0.18-0.18
		c-0.02-0.04,0.06-0.11,0.09-0.17c0.07,0,0.17-0.02,0.22,0.01C306.85,419.38,306.81,419.51,306.55,419.61z M312.43,420.2
		c-0.9-0.69-1.41-0.04-1.94,0.44c-0.23,0.21-0.35,0.25-0.55,0.05c-0.64-0.63-1.24-0.31-1.85,0.07c-0.03,0.02-0.39-0.23-0.36-0.3
		c0.2-0.55,0.45-1.09,0.7-1.63c0.04-0.09,0.18-0.23,0.22-0.22c0.21,0.06,0.4,0.16-0.15-0.08c1.73,0.84,2.85,0.35,3.84,0.67
		c0.16,0.05,0.3,0.31,0.32,0.48C312.67,419.84,312.51,420.02,312.43,420.2z M315.13,419.78c-0.18,0.18-0.46,0.28-0.68,0.41
		c-0.36-0.32-0.27-0.6-0.12-0.86c0.2-0.34,0.61-0.29,0.88-0.18C315.76,419.36,315.29,419.62,315.13,419.78z M316.67,420.2
		c-0.03,0.01-0.16-0.11-0.19-0.19c-0.02-0.04,0.07-0.11,0.1-0.17c0.07,0,0.17-0.02,0.22,0.01
		C316.99,419.98,316.94,420.11,316.67,420.2z M318.52,419.42c-0.01,0.1-0.01,0.3-0.06,0.48c-0.02,0.08-0.17,0.22-0.21,0.21
		c-0.16-0.05-0.41-0.13-0.44-0.23c-0.07-0.28-0.08-0.59-0.03-0.87c0.03-0.16,0.24-0.3,0.37-0.45c0.12,0.16,0.26,0.31,0.35,0.47
		C318.55,419.11,318.52,419.23,318.52,419.42z M319.9,349.37c-0.06,0.16-0.1,0.35-0.22,0.41c-0.22,0.1-0.41-0.07-0.27-0.22
		C319.5,349.45,319.71,349.42,319.9,349.37c0.01-0.02,0.01-0.05,0.02-0.06l0.05,0.04C319.95,349.36,319.92,349.36,319.9,349.37z
		 M345.03,354.67c-0.01,0.03-0.17,0.07-0.21,0.05c-0.09-0.05-0.22-0.14-0.22-0.21c-0.03-0.47-0.02-0.94-0.03-1.41
		c-0.02,0-0.04-0.01-0.06-0.01l0.06-0.05c0,0.02,0,0.04,0,0.06c0.36,0.01,0.63,0.18,0.65,0.46
		C345.24,353.92,345.11,354.3,345.03,354.67z M358.71,356.61c-0.02,0.02-0.23-0.01-0.24-0.03c-0.04-0.33,0.2-0.35,0.45-0.37
		c0.01-0.02,0.02-0.04,0.04-0.07l0.07,0.06c-0.04,0-0.07,0-0.11,0.01C358.86,356.35,358.8,356.49,358.71,356.61z M362.31,359.43
		c0.07,0.06,0.14,0.12,0.2,0.18c-0.08,0.05-0.15,0.1-0.23,0.16c-0.07-0.03-0.14-0.06-0.21-0.09
		C362.15,359.59,362.23,359.51,362.31,359.43z M365.45,420.44c-0.05,0.3-0.34,0.5-0.76,0.44c-0.41-0.06-0.59-0.26-0.6-0.6
		c0-0.19,0-0.38,0-0.57c-0.02,0-0.04,0.01-0.06,0.02c0-0.02-0.01-0.03-0.01-0.04c-0.72,0.08-0.57,0.76-0.95,1.08
		c-0.31,0.26-1.03,0.08-1.15-0.28c-0.31-0.99,0.29-1.55,1.52-1.39c0.35,0.05,0.57,0.27,0.57,0.59c0.02,0,0.04-0.01,0.07-0.01
		c0,0.01,0,0.03,0,0.04c0.51-0.09,0.7-0.4,0.75-0.82c0.01-0.09,0.18-0.24,0.19-0.23c0.16,0.07,0.42,0.16,0.42,0.26
		C365.5,419.42,365.53,419.94,365.45,420.44z M366.57,420.24c-0.03,0.01-0.16-0.12-0.19-0.2c-0.02-0.05,0.06-0.12,0.1-0.19
		c0.08,0,0.17-0.03,0.22,0.01C366.88,419.98,366.84,420.13,366.57,420.24z M366.71,418.91c-0.1-0.06-0.21-0.13-0.31-0.19
		c0.07-0.06,0.15-0.12,0.22-0.18c0.07,0.07,0.13,0.13,0.2,0.2C366.78,418.8,366.74,418.86,366.71,418.91z M368.91,420.1
		c-0.13,0.16-0.28,0.12-0.39-0.11c-0.01-0.03,0.13-0.13,0.21-0.17c0.04-0.02,0.13,0.05,0.18,0.08
		C368.91,419.97,368.94,420.06,368.91,420.1z M369.64,418.84c-0.13,0.15-0.29,0.11-0.41-0.1c-0.01-0.02,0.13-0.13,0.22-0.16
		c0.05-0.02,0.13,0.05,0.2,0.08C369.64,418.72,369.67,418.81,369.64,418.84z M370.26,420.75c-0.12-0.11-0.33-0.23-0.33-0.35
		c-0.01-0.18,0.13-0.36,0.21-0.54c0.13,0.12,0.3,0.22,0.38,0.36C370.65,420.45,370.55,420.63,370.26,420.75z M371.76,405.84
		c-0.1-0.07-0.21-0.13-0.31-0.2c0.07-0.06,0.15-0.12,0.22-0.18c0.07,0.07,0.13,0.13,0.2,0.2
		C371.83,405.72,371.79,405.78,371.76,405.84z M374.51,406.49c-0.07-0.07-0.15-0.14-0.22-0.22c0.09-0.06,0.18-0.18,0.25-0.17
		c0.05,0.01,0.09,0.04,0.12,0.08c0.04,0.04,0.08,0.09,0.12,0.12C374.7,406.37,374.61,406.43,374.51,406.49z M438.97,414.24
		c0.07,0.06,0.14,0.12,0.22,0.18c-0.08,0.06-0.15,0.12-0.23,0.17c-0.07-0.03-0.14-0.05-0.21-0.08
		C438.82,414.43,438.89,414.33,438.97,414.24z M404.48,411.02L404.48,411.02C404.48,411.02,404.48,411.02,404.48,411.02
		c0.2,0.06,0.39,0.12,0.59,0.18c-0.09,0.11-0.19,0.33-0.25,0.32c-0.3-0.05-0.59-0.16-0.89-0.25
		C404.11,411.19,404.29,411.1,404.48,411.02z M402.43,411.05c0.2,0,0.39,0.16,0.59,0.25c-0.21,0.07-0.42,0.15-0.62,0.22c0,0,0,0,0,0
		h0c-0.19-0.08-0.37-0.17-0.56-0.25C402.03,411.19,402.23,411.04,402.43,411.05z M394.26,410.39c0.82-0.03,1.63-0.03,2.45,0
		c0.18,0.01,0.35,0.2,0.52,0.3c-0.19,0.1-0.38,0.25-0.58,0.28c-0.34,0.05-0.7,0.01-1.53,0.01c0.02,0-0.45-0.01-0.91-0.05
		c-0.1-0.01-0.27-0.16-0.26-0.18C394.03,410.62,394.15,410.39,394.26,410.39z M389.75,410.44c0.93-0.01,1.85,0,2.78,0.01
		c0.1,0,0.19,0.11,0.28,0.17c-0.05,0.06-0.09,0.16-0.16,0.19c-0.41,0.18-0.83,0.35-1.24,0.51c-0.8,0.32-1.05,0.26-1.76-0.47
		c-0.08-0.08-0.19-0.18-0.18-0.25C389.49,410.54,389.65,410.44,389.75,410.44z M384.12,410.41c0.33-0.05,0.68-0.02,1.66-0.02
		c-0.01,0-0.02,0-0.03-0.01c-0.24-0.02-0.15-0.03,0,0c0.03,0,0.04,0,0.09,0.01c-0.02,0-0.04,0-0.06,0c0.02,0,0.04,0.01,0.06,0.01
		c0.17,0.05,0.3,0.21,0.45,0.31c-0.08,0.07-0.15,0.16-0.25,0.2c-0.31,0.12-0.67,0.17-0.94,0.34c-0.55,0.35-0.8-0.05-1.13-0.27
		c-0.09-0.06-0.21-0.19-0.18-0.24C383.86,410.62,383.99,410.43,384.12,410.41z M383.51,374.31c-0.07,0.34-0.29,0.53-0.71,0.53
		c-0.36,0-0.72,0-1.17,0c-0.13-0.02-0.36-0.06-0.58-0.12c-0.11-0.03-0.19-0.12-0.29-0.18c0.09-0.06,0.18-0.14,0.29-0.19
		c0.52-0.22,1.02-0.48,1.57-0.64c0.32-0.1,0.7-0.01,0.89,0.3C383.57,374.09,383.53,374.21,383.51,374.31z M395.51,379.73
		c-0.03,0.01-0.15-0.11-0.19-0.18c-0.02-0.04,0.07-0.11,0.11-0.16c0.07,0.01,0.17-0.01,0.22,0.02
		C395.82,379.51,395.78,379.64,395.51,379.73z M396.95,379.12c-0.03,0.01-0.15-0.11-0.19-0.18c-0.02-0.03,0.06-0.1,0.09-0.16
		c0.08,0,0.17-0.02,0.22,0.01C397.25,378.9,397.21,379.03,396.95,379.12z M398.89,390.1c-0.01-0.03,0.16-0.12,0.26-0.18
		c0.08,0.07,0.25,0.18,0.23,0.21C399.21,390.41,399.02,390.4,398.89,390.1z M401.29,379.72c-0.07-0.07-0.21-0.15-0.21-0.22
		c0.01-0.07,0.17-0.19,0.24-0.18c0.05,0.01,0.09,0.04,0.13,0.08c0.04,0.04,0.08,0.09,0.12,0.13c-0.04,0.03-0.08,0.06-0.12,0.09
		C401.39,379.65,401.34,379.69,401.29,379.72z M407.31,400.46c0.55-0.13,0.78,0.12,0.84,0.55c0.02-0.01,0.05-0.02,0.07-0.03
		l-0.06,0.06c0-0.01-0.01-0.02-0.01-0.03c-0.27,0.12-0.55,0.22-0.78,0.37c-0.25,0.17-0.4,0.19-0.52-0.05
		c-0.04-0.08-0.06-0.17-0.07-0.26C406.73,400.73,406.97,400.54,407.31,400.46z M405.56,379.64c-0.08-0.12-0.15-0.26-0.21-0.39
		c-0.03,0-0.07,0-0.1-0.01l0.07-0.06c0.01,0.02,0.02,0.04,0.04,0.07c0.25,0.01,0.49,0.04,0.44,0.36
		C405.79,379.64,405.58,379.67,405.56,379.64z M426.71,381.29c0.11,0.06,0.15,0.22,0.2,0.37c0.03,0.01,0.07,0.01,0.1,0.02
		l-0.07,0.06c-0.01-0.03-0.02-0.06-0.03-0.09c-0.17-0.04-0.36-0.07-0.44-0.16C426.35,381.33,426.52,381.18,426.71,381.29z
		 M419.2,383.22c0.03-0.03,0.06-0.07,0.08-0.1c0.04,0,0.09,0,0.13,0c0.04,0,0.08,0,0.11,0.02c0.19,0.12,0.14,0.26-0.14,0.36
		c-0.03,0.01-0.17-0.12-0.21-0.2C419.16,383.29,419.18,383.25,419.2,383.22z M415.06,381.21c0.05-0.01,0.15,0.13,0.22,0.2
		c-0.08,0.06-0.2,0.2-0.24,0.18C414.69,381.46,414.7,381.31,415.06,381.21z M412.05,381.31c0.28-0.27,1.34-0.27,1.65,0
		c0.04,0.03,0.03,0.14-0.01,0.18c-0.07,0.08-0.18,0.17-0.28,0.18c-0.24,0.03-0.48,0.01-0.7,0.01c-0.23-0.06-0.45-0.12-0.66-0.19
		C412.02,381.48,412.01,381.35,412.05,381.31z M407.39,379.25c0.01-0.02,0.02-0.04,0.03-0.06l0.07,0.05
		C407.46,379.25,407.42,379.25,407.39,379.25c-0.06,0.13-0.12,0.27-0.2,0.39c-0.02,0.03-0.23,0-0.23-0.02
		C406.89,379.3,407.14,379.28,407.39,379.25z"/>
	<path class="st0" d="M267.18,420.29c-0.01,0-0.02,0-0.04,0c-0.01,0.02-0.02,0.03-0.02,0.05L267.18,420.29z"/>
	<path class="st0" d="M158.72,369.29c0-0.02,0.02-0.03,0.02-0.05c-0.04,0-0.06-0.02-0.1-0.02L158.72,369.29z"/>
	<path class="st0" d="M322.08,421.54c0,0.01-0.01,0.02-0.01,0.02c0.03,0.01,0.05,0.03,0.09,0.04L322.08,421.54z"/>
	<path class="st0" d="M307.49,346.79c1-0.25,1.98-0.54,2.96-0.85c0.43-0.14,0.89-0.3,1.22-0.56c0.21-0.17,0.29-0.55,0.27-0.83
		c-0.07-0.82-0.67-1.38-1.52-1.41c-0.95-0.04-1.93-0.12-2.57,0.71c-0.13,0.16-0.5,0.4-0.51,0.39c-0.9-0.74-1.06-0.13-1.27,0.48
		c-0.13,0.38-0.4,0.73-0.54,1.1c-0.21,0.57,0.19,0.99,0.91,0.98C306.78,346.8,307.16,346.87,307.49,346.79z"/>
	<path class="st0" d="M176.81,425.63c-0.38-0.2-0.61-0.13-0.86,0.1c-0.41,0.36-0.86,0.7-1.21,1.1c-0.2,0.23-0.23,0.58,0.11,0.79
		c0.17,0.1,0.52,0.2,0.63,0.13c0.9-0.66,1.25-0.18,1.6,0.49c0.06,0.11,0.49,0.19,0.62,0.12c0.47-0.27,0.88-0.6,1.27-0.88
		c-0.08-0.32-0.09-0.52-0.19-0.69C178.37,426.08,177.49,425.98,176.81,425.63z"/>
	<path class="st0" d="M417.6,403.15c0.04,0.28,0.09,0.66,0.3,0.81c0.42,0.3,0.84,0.08,1.22-0.22c0.46-0.36,0.85-1.1,1.65-0.36
		c0.34-0.25,0.72-0.48,0.99-0.78c0.05-0.06-0.34-0.48-0.6-0.63c-0.27-0.16-0.64-0.22-0.97-0.3c-1-0.25-1.76,0.25-2.57,0.59
		C417.6,402.56,417.56,402.86,417.6,403.15z"/>
	<path class="st0" d="M417.61,402.26c0-0.01,0-0.02,0-0.03l-0.06,0.06C417.57,402.28,417.59,402.27,417.61,402.26z"/>
	<path class="st0" d="M182.23,427.61c0.68-0.26,0.99-0.43,1.08,0.37c0.01,0.08,0.29,0.14,0.44,0.2c0.3-0.84,0.65-1.67,0.87-2.52
		c0.06-0.24-0.25-0.31-0.48-0.13c-0.48,0.38-0.99,0.54-1.56,0.11c-0.17-0.13-0.38-0.27-0.59-0.31c-0.2-0.03-0.43,0.08-0.65,0.12
		c0.06,0.16,0.06,0.36,0.18,0.46c0.22,0.2,0.27,0.34,0.07,0.51C181.41,427.12,181.76,427.79,182.23,427.61z"/>
	<path class="st0" d="M402.29,375.53c-0.7-0.03-1.46,0.15-2.07-0.32c-0.62-0.47-1.37-0.24-2.06-0.31c-0.21,0.07-0.61,0.17-0.61,0.2
		c0.07,0.34,0.4,0.34,0.73,0.37c0.34,0.03,0.72,0.06,1,0.21c0.4,0.21,0.71,0.56,1.09,0.81c0.46,0.29,0.9-0.59,1.46,0.01
		c0.35,0.37,0.86,0.19,1.17-0.19c0.06-0.07,0.05-0.21,0.02-0.3C402.96,375.65,402.69,375.55,402.29,375.53z"/>
	<path class="st0" d="M199.51,350.6c-0.32-0.01-0.78-0.01-1,0.47c-0.12,0.28-0.23,0.58-0.43,0.81c-0.21,0.23-0.26,0.43,0.04,0.45
		c0.84,0.07,1.35,0.9,2.29,0.69c0.22-0.05,0.58-0.05,0.63-0.16c0.21-0.43-0.29-0.35-0.53-0.43c-0.56-0.18-0.62-0.53-0.49-0.97
		C200.28,350.6,200.28,350.6,199.51,350.6z"/>
	<path class="st0" d="M429.72,419.13c-0.45-0.02-0.63,0.69-1.17,0.33c-0.39-0.26-0.79-0.52-1.26-0.24
		c-0.38,0.23-0.71,0.55-0.98,0.88c-0.09,0.11,0.04,0.38,0.11,0.57c0.02,0.06,0.21,0.14,0.23,0.13c1.03-0.75,2.28-0.4,3.43-0.53
		c0.35-0.04,0.52-0.37,0.43-0.69C430.41,419.19,430.09,419.14,429.72,419.13z"/>
	<path class="st0" d="M318.77,343.72c0.32-0.55,0.71-1.08,0.94-1.67c0.05-0.12-0.42-0.43-0.71-0.59c-0.1-0.05-0.4,0.05-0.52,0.16
		c-0.7,0.57-0.85,1.16-0.45,1.82C318.1,343.57,318.4,343.59,318.77,343.72z"/>
	<path class="st0" d="M157.49,428.98c0.31-0.05,0.37-0.2,0.25-0.39c-0.46-0.72-1.41-0.99-2.34-0.61c-0.14,0.06-0.25,0.32-0.24,0.49
		c0.01,0.16,0.15,0.4,0.3,0.45c0.31,0.1,0.67,0.1,0.94,0.13C156.8,429.02,157.15,429.03,157.49,428.98z"/>
	<path class="st0" d="M423.04,403c-0.1,0.02-0.18,0.12-0.28,0.18c0.09,0.06,0.17,0.16,0.27,0.18c0.53,0.12,1.07,0.23,1.61,0.34
		c0.26,0.05,0.55,0.57,0.77,0.06c0.14-0.34,0.05-0.75,0.03-1.13c0-0.08-0.13-0.16-0.21-0.23C424.61,402.88,423.79,402.84,423.04,403
		z"/>
	<path class="st0" d="M224.04,425.25c0.1-0.02,0.19-0.11,0.28-0.17c-0.02-0.08-0.03-0.16-0.07-0.23c-0.46-0.68-1.17-0.9-2.03-0.78
		c-0.17,0.02-0.32,0.19-0.46,0.31c-0.02,0.02,0.11,0.16,0.17,0.24C222.47,425.25,223.19,425.42,224.04,425.25z"/>
	<path class="st0" d="M329.27,420.96c-0.17,0.1-0.35,0.2-0.53,0.3c0.09,0.07,0.16,0.16,0.26,0.2c0.51,0.23,1.01,0.47,1.54,0.65
		c0.18,0.06,0.53,0.02,0.65-0.1c0.34-0.32-0.12-0.47-0.29-0.66C330.48,420.89,329.86,420.96,329.27,420.96z"/>
	<path class="st0" d="M403.17,366.07c0.17-0.02,0.31-0.2,0.46-0.3c-0.21-0.08-0.41-0.22-0.62-0.23c-0.48-0.03-0.96-0.02-1.44,0.03
		c-0.17,0.02-0.31,0.2-0.47,0.3c0.1,0.06,0.18,0.16,0.29,0.18c0.23,0.04,0.46,0.03,0.55,0.04
		C402.45,366.09,402.82,366.12,403.17,366.07z"/>
	<path class="st0" d="M430.63,381.62c0.41-0.05,0.66-0.19,0.59-0.53c-0.08-0.48-0.25-0.62-0.71-0.56c-0.37,0.05-0.66,0.19-0.58,0.6
		C430,381.49,430.19,381.67,430.63,381.62z"/>
	<path class="st0" d="M430.33,403.9c0.25,0,0.62-0.34,0.73-0.59c0.07-0.16-0.22-0.47-0.42-0.66c-0.12-0.11-0.36-0.12-0.55-0.18
		c-0.07,0.18-0.15,0.36-0.22,0.56C429.94,403.36,429.67,403.89,430.33,403.9z"/>
	<path class="st0" d="M218,425.93c0.04,0.48,0.4,0.67,0.88,0.54c0.52-0.14,0.97-0.44,1.06-0.97c0.01-0.05-0.16-0.17-0.25-0.17
		c-0.33-0.02-0.65-0.01-0.98-0.01C218.66,425.68,218.41,425.88,218,425.93z"/>
	<path class="st0" d="M202.8,358.38c-0.01-0.1,0-0.21-0.04-0.3c-0.08-0.18-0.19-0.36-0.29-0.53c-0.13,0.14-0.29,0.27-0.39,0.43
		c-0.21,0.35-0.39,0.71-0.58,1.06c0.2,0.07,0.41,0.2,0.61,0.2C202.75,359.22,202.77,358.79,202.8,358.38z"/>
	<path class="st0" d="M191.64,359.48c-0.53-0.34-1.58-0.18-1.79,0.3c-0.06,0.15,0.09,0.36,0.17,0.63c0.6-0.25,1.18-0.5,1.76-0.74
		C191.73,359.61,191.7,359.52,191.64,359.48z"/>
	<path class="st0" d="M291.47,349.73c0.03-0.01,0.05-0.16,0.01-0.2c-0.28-0.28-1.32-0.27-1.63,0.02c-0.04,0.04-0.03,0.18,0,0.19
		c0.2,0.08,0.42,0.14,0.75,0.25C290.83,349.92,291.16,349.83,291.47,349.73z"/>
	<path class="st0" d="M233.03,423.47c-0.16,0.02-0.29,0.2-0.43,0.31c0.09,0.06,0.17,0.15,0.27,0.17c0.21,0.05,0.44,0.05,0.65,0.08
		c0.22-0.02,0.44-0.02,0.65-0.06c0.1-0.02,0.17-0.12,0.26-0.18c-0.13-0.12-0.25-0.31-0.4-0.33
		C233.71,423.41,233.36,423.42,233.03,423.47z"/>
	<path class="st0" d="M147.91,421.46c-0.02,0.17,0.08,0.35,0.15,0.62c0.26-0.16,0.51-0.28,0.72-0.44c0.15-0.12,0.24-0.3,0.36-0.46
		c-0.19-0.07-0.38-0.18-0.57-0.2C148.15,420.92,147.95,421.16,147.91,421.46z"/>
	<path class="st0" d="M323.28,420.47c-0.05-0.07-0.18-0.11-0.28-0.12c-0.35-0.03-0.71,0.05-0.81,0.36
		c-0.08,0.25-0.04,0.52-0.04,0.79c0.27-0.12,0.57-0.21,0.8-0.37C323.17,420.98,323.51,420.81,323.28,420.47z"/>
	<path class="st0" d="M322.15,421.51c-0.02,0.01-0.05,0.02-0.07,0.03l0.08,0.06C322.16,421.57,322.15,421.54,322.15,421.51z"/>
	<path class="st0" d="M267.87,421.23c0.12,0.09,0.35,0.13,0.53,0.11c0.2-0.02,0.21-0.61,0-0.79c-0.35-0.31-0.79-0.23-1.21-0.21
		C267.17,420.77,267.55,420.99,267.87,421.23z"/>
	<path class="st0" d="M267.19,420.34c0-0.02-0.01-0.03-0.01-0.05l-0.06,0.05C267.14,420.34,267.16,420.34,267.19,420.34z"/>
	<path class="st0" d="M431.86,419.73c-0.14,0.02-0.25,0.21-0.38,0.33c0.09,0.06,0.17,0.15,0.27,0.17c0.21,0.04,0.43,0.04,0.53,0.05
		c0.23,0,0.36,0.03,0.46-0.01c0.2-0.06,0.39-0.15,0.58-0.23c-0.15-0.1-0.28-0.26-0.45-0.28
		C432.54,419.71,432.19,419.69,431.86,419.73z"/>
	<path class="st0" d="M213.87,426.76c0.08,0.12,0.17,0.35,0.24,0.34c0.29-0.02,0.58-0.1,0.94-0.18c-0.26-0.15-0.43-0.31-0.61-0.33
		C214.26,426.57,214.06,426.7,213.87,426.76z"/>
	<path class="st0" d="M171.45,430.22c0.32,0.02,0.66,0.02,0.77-0.32c0.01-0.05-0.16-0.13-0.27-0.22c-0.27,0.07-0.66-0.03-0.74,0.34
		C171.19,430.07,171.36,430.21,171.45,430.22z"/>
	<path class="st0" d="M251.53,421.74c-0.08,0.18-0.22,0.36-0.21,0.54c0.01,0.12,0.22,0.23,0.34,0.35c0.28-0.12,0.39-0.31,0.26-0.53
		C251.84,421.95,251.67,421.85,251.53,421.74z"/>
	<path class="st0" d="M326.72,420.51c-0.31,0.22-0.29,0.49-0.13,0.77c0.05,0.08,0.15,0.15,0.22,0.22c0.08-0.07,0.19-0.13,0.24-0.21
		c0.16-0.27,0.21-0.54-0.1-0.76C326.9,420.49,326.79,420.51,326.72,420.51z"/>
	<path class="st0" d="M351,352.22c-0.02-0.09-0.28-0.17-0.44-0.21c-0.04-0.01-0.2,0.12-0.2,0.2c-0.02,0.28-0.01,0.56-0.01,0.83
		c0.23,0,0.46,0,0.68,0C351.02,352.77,351.05,352.49,351,352.22z"/>
	<path class="st0" d="M417.71,395.08c0.28,0.09,0.55,0.21,0.84,0.26c0.07,0.01,0.19-0.21,0.28-0.32c-0.26-0.29-0.56-0.23-0.87-0.12
		C417.86,394.94,417.79,395.02,417.71,395.08z"/>
	<path class="st0" d="M199.31,357.73c0.17,0.1,0.33,0.2,0.5,0.3c0.19-0.06,0.38-0.13,0.58-0.19c-0.08-0.12-0.18-0.36-0.23-0.35
		C199.87,357.54,199.59,357.64,199.31,357.73z"/>
	<path class="st0" d="M204.02,353.3c-0.25-0.36-0.57-0.22-0.87-0.12c-0.1,0.03-0.16,0.13-0.24,0.19c0.29,0.09,0.57,0.2,0.87,0.25
		C203.83,353.63,203.94,353.4,204.02,353.3z"/>
	<path class="st0" d="M323.27,341.39c-0.07,0.09-0.14,0.18-0.21,0.27c0.07,0.03,0.14,0.05,0.2,0.08c0.08-0.06,0.15-0.11,0.23-0.17
		C323.42,341.5,323.34,341.45,323.27,341.39z"/>
	<path class="st0" d="M338.57,344.71c0.02-0.04-0.06-0.12-0.09-0.18c-0.07,0-0.15,0-0.22,0c0.04,0.12,0.07,0.24,0.11,0.36
		C338.44,344.83,338.53,344.78,338.57,344.71z"/>
	<path class="st0" d="M322.74,346.56c-0.08-0.07-0.18-0.22-0.22-0.21c-0.36,0.09-0.38,0.25-0.03,0.39
		C322.53,346.75,322.66,346.62,322.74,346.56z"/>
	<path class="st0" d="M337.56,346.39c-0.03,0.06-0.1,0.13-0.08,0.18c0.03,0.08,0.11,0.14,0.17,0.2c0.04-0.13,0.08-0.25,0.11-0.38
		C337.7,346.39,337.63,346.39,337.56,346.39z"/>
	<path class="st0" d="M295.25,349.03c0.02-0.05-0.13-0.14-0.21-0.21c-0.34,0.11-0.35,0.25-0.03,0.41
		C295.04,349.24,295.22,349.11,295.25,349.03z"/>
	<path class="st0" d="M171.66,427.76c-0.01,0.02-0.02,0.05-0.03,0.08c0.03-0.01,0.06-0.01,0.09-0.02L171.66,427.76z"/>
	<path class="st0" d="M171.63,427.84c-0.17,0.04-0.37,0.08-0.44,0.17c-0.12,0.17,0.07,0.33,0.24,0.22
		C171.55,428.16,171.58,427.99,171.63,427.84z"/>
	<path class="st0" d="M173.54,427.65c0.08-0.05,0.15-0.11,0.23-0.16c-0.07-0.06-0.14-0.12-0.22-0.18c-0.08,0.08-0.15,0.17-0.23,0.25
		C173.4,427.59,173.47,427.62,173.54,427.65z"/>
	<path class="st0" d="M172.2,427.37c0-0.02-0.22-0.05-0.24-0.02c-0.08,0.13-0.14,0.27-0.21,0.4
		C172.01,427.73,172.27,427.72,172.2,427.37z"/>
	<path class="st0" d="M171.76,427.75c-0.03,0-0.07,0.01-0.1,0.01l0.07,0.05C171.73,427.8,171.75,427.78,171.76,427.75z"/>
	<path class="st0" d="M236.88,423.72c0.12,0.21,0.28,0.25,0.42,0.1c0.03-0.04,0.01-0.12,0.01-0.18c-0.07-0.03-0.15-0.09-0.2-0.07
		C237.01,423.6,236.87,423.7,236.88,423.72z"/>
	<path class="st0" d="M266.6,422.5c0.03,0.07,0.15,0.19,0.18,0.18c0.26-0.09,0.3-0.21,0.13-0.32c-0.05-0.03-0.14-0.01-0.21-0.02
		C266.66,422.39,266.58,422.46,266.6,422.5z"/>
	<path class="st0" d="M242.9,422.7c0.08,0.01,0.18-0.11,0.26-0.17c-0.08-0.08-0.16-0.16-0.23-0.23c-0.09,0.07-0.18,0.14-0.27,0.2
		C242.74,422.57,242.82,422.69,242.9,422.7z"/>
	<path class="st0" d="M272.87,421.6c0.04,0,0.07-0.01,0.11-0.01l-0.08-0.06C272.89,421.55,272.88,421.58,272.87,421.6z"/>
	<path class="st0" d="M272.45,421.99c0,0.02,0.21,0.04,0.22,0.02c0.08-0.13,0.14-0.27,0.2-0.41
		C272.61,421.62,272.37,421.65,272.45,421.99z"/>
	<path class="st0" d="M324.38,421.24c0.13,0.22,0.29,0.26,0.43,0.11c0.04-0.04,0.01-0.12,0.01-0.19c-0.06-0.03-0.15-0.1-0.21-0.08
		C324.52,421.1,324.37,421.22,324.38,421.24z"/>
	<path class="st0" d="M321.88,419.51c0.03,0,0.06-0.19,0.03-0.2c-0.15-0.07-0.32-0.13-0.48-0.18
		C321.45,419.35,321.48,419.57,321.88,419.51z"/>
	<path class="st0" d="M321.43,419.12c0-0.03-0.01-0.05-0.01-0.08l-0.06,0.05C321.38,419.11,321.41,419.12,321.43,419.12z"/>
	<path class="st0" d="M427.96,407.41c-0.03,0.05-0.11,0.13-0.09,0.17c0.03,0.08,0.16,0.2,0.19,0.19c0.26-0.1,0.3-0.24,0.13-0.36
		C428.13,407.38,428.03,407.41,427.96,407.41z"/>
	<path class="st0" d="M411.93,403.8c0.12,0.31,0.3,0.31,0.45,0.02c0.02-0.03-0.14-0.14-0.22-0.21
		C412.08,403.67,411.91,403.76,411.93,403.8z"/>
	<path class="st0" d="M432.23,403.28c0.07,0.03,0.13,0.06,0.2,0.1c0.07-0.06,0.2-0.11,0.21-0.17c0-0.06-0.12-0.13-0.18-0.19
		C432.38,403.1,432.3,403.19,432.23,403.28z"/>
	<path class="st0" d="M428.2,403.05c-0.05-0.03-0.16-0.01-0.24-0.01c-0.04,0.07-0.13,0.15-0.11,0.2c0.04,0.09,0.18,0.22,0.21,0.21
		C428.35,403.33,428.4,403.17,428.2,403.05z"/>
	<path class="st0" d="M422.02,395.7c0.14,0.03,0.29,0.07,0.43,0.1c0-0.06,0-0.12,0-0.18c-0.07-0.03-0.15-0.09-0.2-0.07
		C422.16,395.57,422.09,395.65,422.02,395.7z"/>
	<path class="st0" d="M419.87,395.7c0.11,0.22,0.27,0.26,0.4,0.1c0.04-0.04,0.01-0.12,0.01-0.19c-0.06-0.03-0.15-0.09-0.19-0.08
		C420,395.57,419.86,395.67,419.87,395.7z"/>
	<path class="st0" d="M416.47,395.27c0.08,0,0.17-0.11,0.25-0.17c-0.08-0.08-0.15-0.15-0.23-0.23c-0.09,0.07-0.17,0.14-0.26,0.21
		C416.32,395.14,416.39,395.26,416.47,395.27z"/>
	<path class="st0" d="M414.76,395.09c-0.02,0.03,0.14,0.16,0.24,0.2c0.06,0.02,0.16-0.06,0.24-0.09c0-0.07,0.03-0.16-0.01-0.21
		C415.1,394.81,414.92,394.84,414.76,395.09z"/>
	<path class="st0" d="M422.24,394.32c-0.09,0.02-0.16,0.1-0.24,0.15c0.14,0.04,0.29,0.07,0.43,0.11c0.01-0.06,0.01-0.12,0.02-0.17
		C422.38,394.37,422.3,394.31,422.24,394.32z"/>
	<path class="st0" d="M420.12,394.25c-0.08,0.06-0.15,0.12-0.23,0.19c0.11,0.07,0.22,0.14,0.33,0.2c0.04-0.06,0.08-0.12,0.11-0.19
		C420.26,394.38,420.19,394.31,420.12,394.25z"/>
	<path class="st0" d="M393.24,377.52c-0.1,0.02-0.14,0.25-0.2,0.42c0.21,0,0.43,0,0.64,0C393.66,377.7,393.64,377.45,393.24,377.52z
		"/>
	<path class="st0" d="M403.99,375.76c0.11,0.06,0.22,0.13,0.33,0.19c0.04-0.06,0.07-0.11,0.11-0.17c-0.07-0.06-0.14-0.17-0.21-0.18
		C404.14,375.6,404.06,375.7,403.99,375.76z"/>
	<path class="st0" d="M421.55,370.4c0.08-0.07,0.16-0.14,0.24-0.21c-0.07-0.08-0.15-0.16-0.22-0.24c-0.08,0.07-0.22,0.14-0.23,0.22
		C421.33,370.25,421.47,370.33,421.55,370.4z"/>
	<path class="st0" d="M408.28,370.18c0.14,0.03,0.29,0.07,0.43,0.1c0-0.06,0.01-0.11,0.01-0.17c-0.07-0.03-0.15-0.09-0.21-0.08
		C408.42,370.05,408.35,370.13,408.28,370.18z"/>
	<path class="st0" d="M406.35,369.79c0.25-0.11,0.29-0.24,0.12-0.36c-0.04-0.03-0.14,0-0.21,0c-0.03,0.06-0.11,0.13-0.09,0.18
		C406.2,369.68,406.33,369.8,406.35,369.79z"/>
	<path class="st0" d="M158.59,369.3c0.04,0,0.08-0.01,0.13-0.01l-0.08-0.07C158.62,369.24,158.6,369.27,158.59,369.3z"/>
	<path class="st0" d="M158.16,369.68c0,0.02,0.21,0.05,0.22,0.02c0.08-0.13,0.15-0.27,0.21-0.4
		C158.34,369.32,158.11,369.35,158.16,369.68z"/>
	<path class="st0" d="M197.48,357.61c-0.05-0.03-0.14-0.01-0.22-0.02c-0.04,0.06-0.12,0.13-0.1,0.17c0.03,0.08,0.16,0.2,0.19,0.19
		C197.61,357.86,197.66,357.73,197.48,357.61z"/>
</g>
<g>
	<path class="st1" d="M246.35,361.43c0.41,1.22-0.67,4.29-3.22,9.22c-2.67,5.22-5.02,7.54-7.05,6.96c-1.1-0.29-1.65-1.1-1.65-2.44
		c0-1.68,0.93-4.41,2.78-8.18c2.44-4.99,3.68-7.57,3.74-7.74c-0.17-1.16,0.23-2.03,1.22-2.61c0.06-0.46,0.09-0.96,0.09-1.48
		c0-3.42-1.39-6.31-4.18-8.66s-6.24-3.55-10.35-3.61c-7.71-0.12-15.82,2.16-24.32,6.83c-8.5,4.67-13.27,9.56-14.31,14.66
		c-0.17,0.81-0.26,1.6-0.26,2.35c0,3.77,1.83,7.51,5.48,11.22c2.26,2.32,5.77,5.05,10.53,8.18c9.4,6.21,15.17,10.21,17.31,12.01
		c5.92,4.81,8.58,8.96,8,12.44c-0.93,5.45-5.28,9.89-13.05,13.31c-6.5,2.84-13.11,4.26-19.84,4.26c-0.93,0-1.8-0.03-2.61-0.09
		c-6.26-0.58-11.14-1.74-14.62-3.48c-4.23-2.09-7.45-5.34-9.66-9.74c-0.87-1.74-1.31-3.51-1.31-5.31c0-2.32,0.58-4.35,1.74-6.09
		c1.16-1.74,2.29-2.61,3.39-2.61c1.1,0,1.65,0.58,1.65,1.74c0,0.23-0.35,0.96-1.04,2.17c-0.7,1.22-0.96,2.52-0.78,3.92
		c1.16,8.64,8.06,13.69,20.71,15.14c0.87,0.12,1.8,0.17,2.78,0.17c6.03,0,11.83-1.28,17.4-3.83c6.38-2.9,9.66-6.44,9.83-10.61
		c0.12-3.07-2.41-6.47-7.57-10.18c-4.93-3.13-9.86-6.26-14.79-9.4c-5.51-3.65-9.48-6.7-11.92-9.13c-4.76-4.7-7.13-9.37-7.13-14.01
		c0-1.16,0.14-2.32,0.44-3.48c1.8-7.08,7.77-13.17,17.92-18.27c9.16-4.64,17.95-6.9,26.36-6.79c5.92,0.06,10.67,1.58,14.27,4.57
		c3.6,2.99,5.39,6.83,5.39,11.53C247.74,356.65,247.27,358.99,246.35,361.43z"/>
	<path class="st1" d="M261.66,423.46c0.17,0.64-0.36,1.38-1.61,2.22c-1.25,0.84-2.54,1.26-3.87,1.26c-2.96,0-4.44-2.15-4.44-6.44
		c0-3.02,1.36-9.51,4.09-19.49c0.7-2.49,1.04-3.88,1.04-4.18c0-0.23-0.06-0.38-0.17-0.44c-0.41-0.23-1.22,0.32-2.44,1.65
		c-1.91,2.15-7.48,9.4-16.7,21.75c-1.22,1.62-2.58,2.44-4.09,2.44c-1.74,0-2.61-0.7-2.61-2.09c0-0.41,0.09-0.99,0.26-1.74
		c2.84-10.85,7.28-23.34,13.31-37.5c4.93-11.66,7.39-18.5,7.39-20.53c0-1.8,0.64-3.19,1.91-4.18c0.17-0.12,0.67-0.61,1.48-1.48
		c0.41-0.46,0.93-0.75,1.57-0.87c1.8-0.41,3.1,0.03,3.92,1.31c0,0.41-0.75,2.32-2.26,5.74c-3.25,6.56-7.83,16.62-13.75,30.19
		c-4.41,11.6-6.61,18.15-6.61,19.66c0,0.23,0.06,0.38,0.17,0.44c0.17,0.06,1.42-1.45,3.74-4.52c3.13-4.12,6.06-7.63,8.79-10.53
		c2.2-2.32,3.54-3.68,4-4.09c1.62-1.39,3.07-2.09,4.35-2.09c0.46,0,0.9,0.09,1.31,0.26c1.27,0.52,1.91,1.62,1.91,3.31
		c0,0.81-0.26,2.38-0.78,4.7c-0.23,1.04-1.28,4.9-3.13,11.57c-1.33,4.58-2,7.8-2,9.66c0,1.8,0.52,2.78,1.57,2.96
		c0.35,0.06,0.78,0.06,1.31,0c0.64-0.12,1.01-0.17,1.13-0.17C261.08,422.24,261.48,422.65,261.66,423.46z"/>
	<path class="st1" d="M300.98,392.49c0,1.1-0.29,2.32-0.87,3.65c-3.71,8.64-5.57,15.17-5.57,19.58c0,2.73,0.75,4.41,2.26,5.05
		c0.7,0.17,1.68,0.64,2.96,1.39c0.17,0.17,0.26,0.38,0.26,0.61c0,0.64-0.26,1.19-0.78,1.65c-0.58,0.64-1.36,0.96-2.35,0.96
		c-0.64,0-1.33-0.17-2.09-0.52c-2.96-1.22-4.44-4.29-4.44-9.22c0-1.1,0.09-2.46,0.26-4.09c-3.25,4.41-6.61,7.95-10.09,10.61
		c-3.83,2.9-7.34,4.35-10.53,4.35c-0.7,0-1.39-0.09-2.09-0.26c-3.54-0.87-5.31-4.06-5.31-9.57c0-5.57,1.48-11.66,4.44-18.27
		c3.13-6.96,6.67-12.61,10.61-16.96c4.7-5.28,9.37-7.92,14.01-7.92c2.96,0,5.19,1.1,6.7,3.31c1.33,1.97,2,4.5,2,7.57
		c0,2.26-0.35,4.44-1.04,6.52C299.79,391.16,300.34,391.68,300.98,392.49z M294.54,391.01c0.52-2.32,0.78-4.47,0.78-6.44
		c0-4.35-1.33-6.52-4-6.52c-2.78,0-5.96,1.9-9.53,5.7c-3.57,3.8-6.66,8.48-9.27,14.05c-3.19,6.73-4.79,12.96-4.79,18.71
		c0,3.02,0.67,4.84,2,5.48c0.52,0.23,1.1,0.35,1.74,0.35c3.54,0,8-3.48,13.4-10.44c4.99-6.38,7.89-11.54,8.7-15.49
		c-0.17-1.62-0.2-2.73-0.09-3.31C293.56,392.81,293.9,392.11,294.54,391.01z"/>
	<path class="st1" d="M340.39,423.03c0,0.75-0.36,1.38-1.09,1.87c-0.73,0.49-1.58,0.65-2.57,0.48c-1.91-0.35-5.68-2.18-11.31-5.48
		c-5.28-3.13-9.28-5.8-12.01-8c-2.96-0.58-4.44-1.59-4.44-3.04c0-0.7,0.38-1.51,1.13-2.44c1.04-1.27,1.97-1.91,2.78-1.91
		c0.81,0,2.03,0.61,3.65,1.83c3.25,0.29,6.44-0.26,9.57-1.65c3.94-1.68,7.08-4.47,9.4-8.35c1.8-3.02,2.7-5.66,2.7-7.92
		c0-2.96-1.33-4.44-4-4.44c-4.58,0-11.4,5.28-20.45,15.83c-2.09,2.44-4.06,5.45-5.92,9.05c-2.09,4.18-3.13,7.45-3.13,9.83
		c0,0.41,0.03,0.78,0.09,1.13c0.17,0.99-0.19,1.83-1.09,2.52c-0.9,0.7-1.84,0.96-2.83,0.78c-1.1-0.23-1.65-1.1-1.65-2.61
		c0-0.81,0.15-1.68,0.44-2.61c4.87-14.5,12.67-34.8,23.4-60.9c0.7-1.74,1.19-2.78,1.48-3.13c0.64-0.87,1.71-1.31,3.22-1.31
		c1.39,0,2.09,0.81,2.09,2.44c0,1.39-0.41,2.84-1.22,4.35c-7.71,14.73-13.43,27.06-17.14,36.98c10.32-11.72,18.65-17.2,24.97-16.44
		c4.29,0.52,6.44,3.07,6.44,7.66c0,3.13-1.16,6.7-3.48,10.7c-1.86,3.25-4.61,5.97-8.26,8.18c-3.13,1.91-6.47,3.22-10,3.92
		c3.01,3.36,7.86,6.61,14.53,9.74c0.46-0.23,0.93-0.35,1.39-0.35c0.75,0,1.49,0.35,2.22,1.04
		C340.03,421.46,340.39,422.21,340.39,423.03z"/>
	<path class="st1" d="M378.58,392.49c0,1.1-0.29,2.32-0.87,3.65c-3.71,8.64-5.57,15.17-5.57,19.58c0,2.73,0.75,4.41,2.26,5.05
		c0.7,0.17,1.68,0.64,2.96,1.39c0.17,0.17,0.26,0.38,0.26,0.61c0,0.64-0.26,1.19-0.78,1.65c-0.58,0.64-1.36,0.96-2.35,0.96
		c-0.64,0-1.33-0.17-2.09-0.52c-2.96-1.22-4.44-4.29-4.44-9.22c0-1.1,0.09-2.46,0.26-4.09c-3.25,4.41-6.61,7.95-10.09,10.61
		c-3.83,2.9-7.34,4.35-10.53,4.35c-0.7,0-1.39-0.09-2.09-0.26c-3.54-0.87-5.31-4.06-5.31-9.57c0-5.57,1.48-11.66,4.44-18.27
		c3.13-6.96,6.67-12.61,10.61-16.96c4.7-5.28,9.37-7.92,14.01-7.92c2.96,0,5.19,1.1,6.7,3.31c1.33,1.97,2,4.5,2,7.57
		c0,2.26-0.35,4.44-1.04,6.52C377.39,391.16,377.94,391.68,378.58,392.49z M372.15,391.01c0.52-2.32,0.78-4.47,0.78-6.44
		c0-4.35-1.33-6.52-4-6.52c-2.78,0-5.96,1.9-9.53,5.7c-3.57,3.8-6.66,8.48-9.27,14.05c-3.19,6.73-4.79,12.96-4.79,18.71
		c0,3.02,0.67,4.84,2,5.48c0.52,0.23,1.1,0.35,1.74,0.35c3.54,0,8-3.48,13.4-10.44c4.99-6.38,7.89-11.54,8.7-15.49
		c-0.17-1.62-0.2-2.73-0.09-3.31C371.16,392.81,371.51,392.11,372.15,391.01z"/>
	<path class="st1" d="M410.95,386.05c-0.75,2.09-2.06,3.13-3.92,3.13c-0.81,0-1.6-0.23-2.35-0.7c-0.75-0.46-0.84-1.65-0.26-3.57
		c-2.73,0.23-5.82,1.97-9.27,5.22c-3.45,3.25-6.39,8.38-8.83,15.4c-1.86,5.45-2.76,9.37-2.7,11.74c0.06,2.38-0.29,3.86-1.04,4.44
		c-0.52,0.35-1.1,0.52-1.74,0.52c-0.99,0-1.87-0.33-2.65-1c-0.78-0.67-1.09-1.32-0.91-1.96c0.7-2.9,2.67-8.73,5.92-17.49
		c3.07-8.29,4.84-13.51,5.31-15.66c-0.29-0.23-0.43-0.58-0.43-1.04c0-0.87,0.36-1.81,1.09-2.83c0.72-1.01,1.52-1.58,2.39-1.7
		c0.87-0.17,1.78-0.04,2.74,0.39c0.96,0.44,1.44,1.03,1.44,1.78c0,0.23-0.06,0.47-0.17,0.7c-0.52,0.99-1.13,2.17-1.83,3.57
		c2.84-3.94,6.7-6.32,11.57-7.13c0.99-0.17,1.86-0.26,2.61-0.26c2.55,0,3.83,0.99,3.83,2.96
		C411.73,383.44,411.47,384.6,410.95,386.05z"/>
</g>
<g>
</g>
<g>
</g>
<g>
</g>
<g>
</g>
<g>
</g>
<g>
</g>
</svg>
